<?xml version="1.0" standalone="no"?>
<!DOCTYPE svg PUBLIC "-//W3C//DTD SVG 20010904//EN"
 "http://www.w3.org/TR/2001/REC-SVG-20010904/DTD/svg10.dtd">
<svg version="1.0" xmlns="http://www.w3.org/2000/svg"
 width="649.000000pt" height="649.000000pt" viewBox="0 0 649.000000 649.000000"
 preserveAspectRatio="xMidYMid meet">
<metadata>
Created by potrace 1.14, written by Peter Selinger 2001-2017
</metadata>
<g transform="translate(0.000000,649.000000) scale(0.100000,-0.100000)"
fill="#000000" stroke="none">
<path d="M1856 4153 c-6 -14 -5 -15 5 -6 7 7 10 15 7 18 -3 3 -9 -2 -12 -12z"/>
<path d="M1915 4140 c3 -5 8 -10 11 -10 2 0 4 5 4 10 0 6 -5 10 -11 10 -5 0
-7 -4 -4 -10z"/>
<path d="M1385 4130 c3 -5 8 -10 11 -10 2 0 4 5 4 10 0 6 -5 10 -11 10 -5 0
-7 -4 -4 -10z"/>
<path d="M2077 4117 c-3 -9 -30 -12 -98 -11 -52 1 -96 3 -99 4 -3 1 -9 1 -15
0 -31 -9 -392 -5 -403 4 -9 6 -16 6 -20 0 -4 -6 -128 -10 -319 -9 -270 0 -312
-2 -315 -15 -2 -8 -4 -68 -3 -132 0 -75 -3 -116 -10 -115 -5 1 -10 -11 -10
-28 0 -16 -4 -36 -8 -42 -5 -7 -5 -18 -1 -25 5 -8 0 -9 -14 -6 -12 4 -25 2
-28 -3 -3 -5 -11 -9 -19 -9 -10 0 -11 9 -5 35 7 30 5 36 -16 50 -21 14 -25 14
-30 1 -3 -8 -1 -24 5 -35 7 -11 9 -31 5 -44 -4 -17 -1 -26 11 -31 9 -3 13 -11
9 -17 -5 -9 -11 -7 -20 6 -16 22 -20 19 -29 -17 -6 -24 -5 -26 16 -21 15 4 20
3 15 -5 -4 -7 0 -15 8 -18 30 -11 16 -25 -19 -20 -21 4 -35 2 -35 -5 0 -5 -3
-8 -7 -6 -5 3 -15 -2 -23 -11 -13 -14 -12 -15 2 -10 10 4 19 1 22 -8 3 -7 2
-13 -2 -13 -28 4 -52 -4 -56 -19 -6 -18 -66 -31 -66 -13 0 5 7 8 16 7 25 -2
43 32 24 44 -13 8 -12 10 4 10 11 0 16 3 13 7 -4 3 3 11 16 18 13 7 21 18 19
29 -2 10 7 30 20 43 16 18 19 27 11 30 -7 3 -13 11 -13 19 0 8 -8 14 -19 14
-11 0 -23 11 -30 29 -10 22 -17 27 -37 23 -31 -6 -39 -19 -24 -37 10 -11 10
-15 1 -15 -7 0 -10 -4 -7 -8 2 -4 -4 -8 -14 -9 -11 -1 -22 2 -25 8 -9 13 -25
11 -25 -3 0 -6 3 -9 6 -5 3 3 12 0 19 -6 10 -10 10 -17 -1 -39 -18 -34 -17
-38 1 -38 9 0 15 9 15 21 0 17 3 19 13 10 8 -6 17 -8 20 -4 4 3 7 -3 7 -15 0
-12 4 -22 9 -22 5 0 11 -8 13 -18 4 -14 -3 -22 -28 -31 -18 -7 -36 -21 -39
-31 -6 -17 -8 -18 -21 -6 -15 16 -19 27 -7 24 5 -1 18 4 31 12 25 16 30 43 7
34 -8 -4 -15 -1 -15 6 0 7 -6 10 -14 7 -8 -3 -17 -1 -20 6 -2 7 -5 4 -5 -5 -1
-10 -12 -20 -27 -24 -19 -5 -24 -12 -21 -25 4 -14 0 -18 -17 -16 -21 2 -21 1
-8 -48 5 -18 4 -18 -12 -6 -9 8 -18 12 -19 10 -1 -2 -9 -12 -16 -22 -12 -15
-12 -17 3 -11 9 3 16 1 16 -5 0 -16 16 -14 35 5 19 19 23 17 27 -18 2 -15 8
-31 12 -35 5 -4 6 2 3 15 -4 18 -1 22 21 23 23 0 24 2 8 8 -18 7 -18 8 -2 14
20 8 31 -13 23 -46 -3 -12 -1 -31 3 -42 5 -11 9 -15 9 -8 1 19 28 4 34 -18 4
-13 14 -19 34 -20 23 0 25 -2 9 -8 -12 -5 -16 -10 -9 -14 15 -9 45 2 37 14 -3
5 0 9 5 9 12 0 14 -11 5 -34 -3 -9 -17 -16 -29 -16 -13 0 -30 -7 -39 -15 -17
-17 -11 -49 8 -38 6 3 8 3 4 -2 -4 -4 -3 -14 3 -22 9 -10 8 -13 -5 -13 -9 0
-16 4 -16 9 0 16 -50 -13 -50 -29 -1 -25 -37 -61 -54 -54 -29 11 -17 -13 24
-47 37 -31 39 -35 23 -47 -15 -11 -16 -14 -3 -22 16 -10 72 -1 81 13 4 5 12 6
18 3 6 -4 11 -2 11 3 0 6 -10 11 -22 11 -24 0 -56 29 -77 68 -7 14 -8 22 -1
22 5 0 10 -4 10 -10 0 -5 5 -10 10 -10 6 0 22 -11 36 -25 14 -14 29 -25 34
-25 5 0 12 -10 16 -22 4 -13 15 -30 25 -39 24 -21 24 -39 1 -39 -10 0 -24 -11
-32 -24 -7 -13 -21 -26 -31 -29 -12 -3 -16 -11 -12 -25 3 -14 10 -19 21 -15
12 4 11 1 -3 -10 -11 -9 -16 -17 -11 -17 5 0 3 -7 -4 -15 -20 -24 -6 -27 20
-5 28 24 27 24 27 5 0 -8 -4 -12 -8 -10 -4 3 -9 -2 -12 -10 -4 -10 -1 -12 10
-8 13 5 14 3 4 -15 -10 -18 -9 -22 5 -22 10 0 14 5 11 15 -9 21 10 28 22 8 6
-10 11 -12 11 -5 0 19 14 14 29 -9 7 -12 9 -24 4 -28 -29 -22 -35 -91 -7 -91
8 0 12 -4 9 -10 -3 -6 1 -7 9 -4 9 3 16 2 16 -4 0 -12 -42 -24 -50 -14 -6 8
-40 12 -40 5 0 -2 5 -13 11 -24 9 -17 13 -18 26 -7 13 10 17 10 20 1 3 -7 16
-13 30 -13 19 0 23 -3 15 -12 -6 -7 -12 -26 -14 -43 l-4 -30 -13 25 c-7 14
-21 26 -32 27 -22 2 -23 0 -7 -29 32 -55 82 -67 73 -17 -3 13 0 19 8 16 6 -2
12 -12 13 -23 3 -64 4 -66 24 -61 10 3 18 2 17 -2 -1 -3 1 -7 6 -8 17 -6 27
-2 27 10 0 17 23 67 31 67 11 0 3 -58 -10 -74 -12 -14 -9 -20 10 -18 4 1 6 -9
5 -21 -1 -15 4 -22 16 -21 10 1 15 -2 12 -7 -3 -5 0 -9 5 -9 6 0 11 4 11 9 0
8 24 8 40 0 11 -5 130 -5 130 0 0 4 299 6 665 6 437 0 665 -3 665 -10 0 -7 3
-7 8 0 9 13 312 14 312 1 0 -4 6 -4 13 1 19 15 290 10 295 -6 3 -9 9 -8 23 5
17 15 20 16 44 0 14 -9 25 -12 25 -7 0 15 30 22 51 11 10 -6 19 -7 19 -3 0 10
101 10 117 0 6 -4 18 -4 27 -1 12 4 16 0 16 -16 0 -17 4 -21 20 -17 10 3 22 0
25 -7 4 -8 6 -8 11 1 3 8 15 9 36 2 33 -9 63 4 52 23 -3 5 -11 2 -18 -7 -10
-15 -12 -14 -13 4 -2 21 2 22 60 23 53 1 101 -41 82 -73 -4 -6 3 -5 15 3 11 7
24 25 27 41 5 24 10 27 37 24 18 -2 37 -6 43 -10 6 -4 14 -3 18 3 16 25 27 8
23 -35 -5 -43 6 -62 18 -30 8 20 31 19 42 -1 5 -9 21 -16 35 -16 16 0 24 -5
20 -11 -3 -6 -1 -7 5 -3 17 10 15 26 -3 26 -8 0 -15 7 -15 16 0 12 4 14 13 7
17 -14 77 -12 77 2 0 7 9 20 20 30 11 10 20 13 20 7 0 -20 16 -13 28 11 8 17
11 18 11 5 1 -10 -9 -26 -20 -37 -25 -24 -20 -62 6 -41 8 7 12 17 9 22 -3 5 3
4 15 -4 12 -7 21 -16 21 -19 0 -9 62 -9 80 1 11 6 26 4 44 -6 35 -17 37 -17
30 0 -3 8 -1 17 5 21 6 3 11 -1 11 -10 0 -9 5 -13 11 -10 6 4 8 13 5 21 -8 22
31 -6 43 -31 8 -17 10 -17 10 -2 1 9 1 20 0 23 -1 8 22 24 34 24 4 0 7 -12 7
-27 0 -20 3 -24 9 -14 5 8 16 11 25 8 10 -4 16 -1 16 9 0 13 3 13 18 -2 16
-17 17 -17 20 4 2 12 8 22 13 22 6 0 7 -4 4 -10 -3 -5 -1 -10 4 -10 6 0 11 7
11 15 0 8 5 25 11 38 8 18 17 23 35 19 16 -3 22 -8 16 -16 -5 -6 -5 -24 -1
-41 3 -16 7 -25 8 -18 0 6 14 11 30 11 29 -1 66 24 54 36 -10 10 7 7 29 -5 19
-10 20 -9 16 15 -3 14 -2 23 2 21 4 -3 10 -16 12 -29 4 -18 -1 -28 -19 -37
-12 -7 -20 -15 -17 -18 10 -11 29 -7 41 9 11 13 12 12 13 -5 1 -18 2 -18 10 3
13 32 24 27 17 -8 -5 -24 -3 -30 12 -30 9 0 23 11 31 24 7 14 18 22 26 19 8
-3 14 -1 14 5 0 16 -28 22 -34 6 -3 -8 -10 -14 -17 -14 -6 0 -9 7 -5 15 3 9 0
15 -9 15 -9 0 -15 9 -15 23 0 21 4 23 38 19 49 -6 71 -6 110 0 17 3 32 1 32
-4 0 -5 6 -6 12 -2 7 5 20 9 29 9 14 1 15 -2 6 -22 -8 -18 -7 -27 8 -43 22
-24 35 -17 35 19 0 39 19 53 50 38 14 -7 29 -22 35 -35 11 -25 21 -29 23 -7 1
8 3 21 4 28 2 16 75 16 104 0 16 -9 24 -9 34 0 10 10 10 8 1 -10 -8 -16 -8
-24 1 -29 6 -4 14 -2 16 4 7 23 40 57 48 50 4 -4 2 -13 -4 -20 -8 -10 -5 -20
9 -38 19 -23 20 -24 14 -3 -4 16 -1 23 15 28 11 4 18 10 15 15 -3 5 5 12 17
16 14 4 24 2 26 -5 3 -8 8 -9 16 -2 16 13 165 20 195 9 13 -5 28 -5 35 0 6 5
41 8 78 7 41 -1 69 3 71 9 2 6 3 37 2 69 -1 48 1 57 16 57 13 0 17 6 13 25 -3
20 0 25 16 25 11 0 20 5 20 11 0 6 -9 9 -19 6 -23 -6 -18 18 6 27 12 5 13 9 3
21 -17 20 -30 19 -30 -2 -1 -17 -1 -17 -11 0 -16 27 3 42 29 26 16 -10 23 -10
35 -1 18 15 27 56 16 73 -4 8 1 23 12 37 22 28 25 56 7 49 -7 -2 -12 -13 -10
-23 2 -16 1 -16 -7 -4 -8 12 -13 12 -23 2 -9 -9 -10 -19 -1 -42 10 -26 9 -32
-8 -41 -24 -12 -53 6 -45 27 3 7 1 16 -4 19 -17 11 -11 33 12 41 19 6 20 8 6
18 -21 15 -24 52 -9 93 12 30 13 31 30 15 21 -20 9 -42 -23 -42 -19 0 -19 -2
8 -23 48 -39 127 -14 87 29 -17 18 -23 54 -8 54 14 0 57 40 57 54 0 4 -13 6
-30 4 -16 -1 -30 1 -30 5 -1 25 2 29 16 23 12 -5 15 -2 10 10 -14 36 43 97 82
87 14 -3 22 -1 22 7 0 9 4 9 16 -1 15 -12 16 -10 10 18 -6 28 -4 32 16 35 17
2 23 10 25 31 2 30 -13 37 -21 9 -3 -10 -15 -18 -25 -19 -18 -1 -18 1 -5 25 8
15 14 35 14 45 0 10 4 15 10 12 6 -3 7 1 4 10 -6 14 -8 14 -19 -2 -8 -10 -15
-16 -17 -13 -2 3 -11 14 -20 25 -17 20 -16 20 23 17 43 -5 50 6 18 27 -14 8
-18 15 -11 20 19 11 2 51 -22 51 -21 -1 -21 -1 -2 -15 11 -8 14 -15 7 -15 -7
0 -10 -4 -7 -9 3 -4 -6 -13 -19 -19 -29 -13 -48 5 -21 20 26 14 19 25 -14 20
-20 -3 -30 0 -30 9 0 10 -3 10 -12 1 -8 -8 -8 -15 2 -27 10 -13 9 -15 -9 -15
-13 0 -21 6 -21 16 0 12 -3 14 -13 6 -10 -9 -18 -6 -31 9 -21 25 -17 31 23 33
16 0 27 4 24 9 -2 4 -10 4 -16 0 -7 -3 -3 3 7 15 17 19 17 22 3 22 -10 0 -17
5 -17 10 0 15 -26 12 -39 -4 -9 -10 -8 -15 3 -19 8 -3 17 -1 20 6 3 8 5 8 5 1
1 -6 -8 -19 -19 -29 -11 -10 -20 -26 -20 -35 0 -18 -19 -40 -34 -40 -5 0 -6 3
-3 6 3 4 2 15 -4 25 -7 14 -6 19 3 19 8 0 9 3 3 8 -12 8 -13 27 -2 38 4 4 7
16 7 26 0 10 7 18 18 18 13 0 11 3 -7 13 -26 13 -30 32 -7 32 8 0 18 3 21 7 9
9 -13 48 -28 48 -17 0 -16 202 1 208 16 5 16 62 -1 62 -9 0 -12 27 -12 104 0
86 -2 105 -15 108 -8 2 -797 4 -1752 3 -956 0 -1738 4 -1738 8 0 5 -6 5 -12 0
-7 -4 -45 -8 -84 -8 -54 0 -70 3 -67 12 3 7 3 13 0 13 -3 0 -7 -6 -10 -13z
m-1108 -91 c6 -4 11 -4 11 1 0 4 58 8 129 8 117 0 128 -1 115 -16 -8 -8 -14
-33 -14 -53 0 -29 -4 -37 -14 -33 -18 7 -52 -28 -36 -38 5 -3 7 -12 4 -18 -4
-7 10 5 31 26 22 23 38 48 38 63 0 13 3 24 8 24 5 0 9 -7 9 -15 0 -8 7 -15 16
-15 8 0 12 5 9 10 -9 14 8 12 24 -2 11 -10 13 -10 7 0 -4 6 -2 12 3 12 6 0 11
-14 11 -31 0 -25 3 -30 16 -25 12 4 15 2 10 -9 -3 -8 -1 -15 4 -15 6 0 11 12
11 28 1 16 3 20 6 10 8 -32 23 -19 16 14 -6 29 -5 31 9 18 20 -21 19 -52 -3
-57 -15 -4 -16 -8 -6 -24 10 -17 8 -23 -13 -39 -14 -11 -19 -20 -11 -20 11 0
11 -3 1 -15 -7 -8 -17 -15 -23 -15 -8 0 -8 3 0 11 13 13 4 59 -12 59 -7 0 -15
9 -18 21 -5 18 -9 19 -27 9 -12 -6 -27 -10 -33 -7 -7 2 -18 -2 -25 -9 -11 -12
-9 -14 10 -15 13 -1 26 -1 30 0 4 0 7 -10 6 -24 -3 -29 -6 -30 -32 -10 -16 12
-22 12 -34 2 -12 -9 -16 -9 -19 1 -6 16 -28 15 -42 -2 -9 -11 -8 -15 5 -20 9
-3 20 -4 24 -1 5 3 11 1 15 -5 3 -5 -1 -10 -10 -10 -8 0 -18 -7 -21 -15 -4 -8
-11 -15 -16 -15 -6 0 -8 6 -5 14 13 32 -32 2 -49 -34 -15 -30 -22 -36 -35 -29
-16 8 -16 49 0 47 19 -2 31 3 26 11 -3 5 -18 8 -33 7 -15 -2 -30 2 -34 8 -5 7
-12 4 -22 -9 -8 -11 -18 -17 -22 -12 -4 4 -2 7 4 7 6 0 13 13 17 29 3 16 12
35 20 41 10 8 10 16 1 35 -16 35 -30 25 -40 -28 -8 -45 -26 -61 -41 -37 -4 7
-13 7 -26 0 -23 -13 -21 -20 -23 105 -1 81 1 101 14 106 18 7 63 4 79 -5z
m308 1 c-5 8 0 11 13 10 11 -1 20 -7 20 -15 0 -7 -5 -10 -12 -6 -7 5 -9 2 -5
-8 3 -10 -1 -18 -13 -21 -24 -6 -30 0 -30 31 0 22 2 23 17 11 10 -8 14 -9 10
-2z m73 3 c0 -5 7 -10 15 -10 8 0 15 -5 15 -11 0 -6 -7 -8 -16 -5 -9 4 -22 2
-29 -4 -9 -8 -11 -4 -7 15 4 24 22 36 22 15z m76 -2 c4 -6 3 -8 -4 -4 -5 3
-12 0 -15 -6 -2 -7 -8 -9 -13 -5 -5 4 -2 12 6 17 19 12 17 12 26 -2z m74 0 c0
-5 -11 -8 -25 -8 -14 0 -25 3 -25 8 0 4 11 7 25 7 14 0 25 -3 25 -7z m90 -10
c0 -5 -7 -8 -15 -4 -9 3 -15 0 -15 -10 0 -8 4 -13 9 -10 5 3 12 -5 15 -19 4
-14 13 -25 21 -25 8 0 15 -7 15 -16 0 -14 -3 -14 -15 -4 -12 10 -19 10 -27 2
-18 -18 -38 -14 -38 8 0 13 -5 18 -15 14 -8 -4 -12 -11 -8 -17 4 -7 0 -8 -12
-4 -9 4 -23 3 -29 -2 -7 -6 -17 -6 -26 -1 -10 6 -11 10 -3 10 7 0 21 17 32 38
13 24 20 31 21 18 0 -14 3 -16 13 -7 8 6 17 8 20 4 4 -3 7 1 7 10 0 17 29 39
42 31 5 -3 8 -10 8 -16z m230 10 c0 -4 -12 -16 -26 -27 -25 -20 -25 -20 -45 0
-23 23 -38 24 -46 3 -6 -15 -8 -15 -20 2 -10 14 -16 15 -25 6 -16 -16 -25 -15
-32 4 -5 13 -2 15 14 11 11 -3 22 -2 24 2 6 9 156 8 156 -1z m55 -26 c-3 -4
-10 0 -15 8 -6 9 -5 17 3 22 13 8 24 -19 12 -30z m115 17 c0 -12 7 -19 20 -19
13 0 18 5 14 15 -7 18 -16 16 117 19 90 2 106 0 101 -13 -3 -8 -1 -12 5 -8 12
8 23 -24 23 -66 0 -23 -3 -26 -17 -19 -21 10 -41 9 -66 -2 -11 -5 -23 -4 -30
3 -8 8 -4 11 15 11 18 0 27 6 32 22 3 13 1 27 -4 32 -12 12 -43 -1 -34 -15 4
-8 3 -9 -4 -5 -7 4 -12 1 -12 -8 0 -9 -5 -16 -10 -16 -6 0 -10 6 -9 13 3 26
-2 36 -16 31 -8 -4 -15 -1 -15 5 0 24 -29 9 -35 -19 -4 -16 -11 -33 -17 -36
-7 -4 -8 -2 -4 4 4 7 3 12 -3 12 -5 0 -12 8 -15 18 -3 9 -4 6 -2 -8 2 -21 -2
-26 -21 -28 -21 -2 -66 -32 -47 -32 4 0 -1 -9 -11 -20 -17 -19 -35 -19 -35 0
0 5 7 6 17 3 10 -4 14 -2 10 4 -4 6 0 19 9 27 10 11 11 16 3 16 -8 0 -6 7 6
20 12 14 15 24 8 32 -22 28 -21 43 3 44 17 1 24 -3 24 -17z m430 3 c0 -7 -4
-11 -9 -8 -5 3 -14 -1 -21 -9 -10 -13 -14 -13 -27 1 -9 8 -18 12 -21 9 -4 -3
0 -10 8 -15 13 -8 12 -10 -2 -10 -10 0 -18 -5 -18 -11 0 -7 8 -18 18 -25 11
-9 13 -13 4 -14 -8 0 -10 -5 -6 -12 5 -7 2 -9 -9 -5 -8 3 -21 -1 -27 -9 -17
-20 -29 -17 -27 6 1 11 7 20 13 20 11 0 24 21 24 40 0 5 -10 12 -22 16 -21 6
-37 21 -38 34 0 3 36 5 80 5 59 0 80 -3 80 -13z m102 4 c-4 -8 -1 -8 9 0 16
12 118 12 138 0 7 -5 16 -5 20 1 4 7 2962 11 2991 4 3 0 5 -34 5 -75 0 -50 -5
-79 -15 -91 -13 -17 -13 -18 1 -13 10 4 16 1 16 -9 0 -10 -7 -13 -24 -8 -13 3
-23 1 -23 -5 0 -5 -9 -10 -20 -10 -25 0 -26 -26 -2 -32 12 -3 24 2 32 15 12
20 13 20 27 -6 12 -24 12 -30 -3 -52 -12 -19 -25 -25 -53 -25 -29 -1 -33 -3
-18 -11 9 -5 17 -19 17 -31 0 -19 -2 -19 -27 8 -15 16 -26 36 -25 45 2 9 -12
22 -33 32 -19 9 -35 13 -35 8 0 -4 -13 -8 -30 -7 -32 1 -34 4 -21 25 7 10 10
11 16 1 6 -10 10 -10 19 2 15 21 37 26 69 17 15 -4 27 -4 27 1 0 14 -39 32
-52 24 -8 -5 -9 0 -5 15 4 18 3 20 -9 10 -8 -6 -14 -17 -14 -25 0 -25 -39 -10
-49 19 -10 28 -11 28 -34 11 -16 -12 -23 -29 -24 -52 -1 -20 -8 -39 -20 -47
-10 -7 -18 -19 -18 -27 -1 -7 -6 -12 -13 -10 -7 1 -12 -2 -12 -8 0 -5 -7 -10
-15 -10 -23 0 -6 -28 28 -45 38 -19 37 -19 37 5 0 11 4 20 10 20 5 0 9 -10 7
-22 -1 -16 -15 -29 -41 -42 -38 -18 -40 -18 -53 0 -7 10 -11 24 -8 31 2 8 -5
23 -17 35 -20 20 -20 22 -4 34 10 7 25 10 33 7 10 -4 23 3 34 18 25 32 24 49
-2 49 -17 0 -20 -5 -17 -25 3 -14 1 -25 -3 -25 -5 0 -9 9 -9 20 0 11 -4 20
-10 20 -20 0 -9 31 14 40 14 5 30 18 35 29 16 29 14 33 -9 19 -11 -7 -20 -18
-20 -24 0 -7 -11 -14 -25 -16 -30 -6 -34 16 -8 44 15 17 15 18 -2 18 -18 0
-18 1 1 15 16 12 17 16 4 24 -22 15 -44 -22 -30 -49 12 -22 10 -23 -14 -14 -9
3 -16 14 -16 25 0 10 -9 23 -19 28 -15 8 -20 7 -24 -8 -2 -10 -16 -20 -31 -23
-21 -4 -26 -1 -26 15 0 14 5 18 20 14 11 -3 20 -1 20 4 0 5 -9 9 -19 9 -11 0
-21 6 -24 13 -2 6 -4 -1 -4 -17 0 -15 -6 -32 -12 -36 -8 -4 -10 -17 -5 -33 4
-17 2 -27 -5 -27 -6 0 -11 6 -11 14 0 8 -4 17 -9 20 -14 9 -7 -20 9 -40 14
-16 13 -17 -7 -12 -13 4 -23 3 -24 0 -5 -45 -13 -66 -30 -83 -16 -16 -20 -17
-25 -5 -9 23 -42 29 -60 12 -12 -12 -20 -13 -35 -5 -11 5 -17 14 -14 20 4 5 1
9 -4 9 -6 0 -11 -9 -11 -19 0 -11 -5 -23 -10 -26 -6 -4 -4 -13 6 -23 16 -15
15 -17 -12 -28 -25 -11 -29 -10 -33 4 -1 10 -16 30 -33 46 -16 16 -32 42 -35
58 -7 33 -25 38 -23 6 4 -42 0 -78 -7 -78 -5 0 -17 12 -27 27 -17 23 -18 26
-2 35 9 5 16 17 16 26 0 10 -3 13 -8 6 -4 -6 -15 -13 -24 -17 -10 -3 -24 -22
-32 -42 -17 -39 -22 -41 -53 -20 -24 17 -39 5 -28 -23 5 -13 4 -14 -6 -5 -7 7
-13 24 -15 39 -3 25 -1 26 32 21 26 -5 39 -1 53 14 31 34 16 59 -21 35 -12 -7
-14 -14 -7 -22 7 -8 6 -14 -1 -19 -6 -4 -14 1 -16 11 -3 11 -17 28 -31 38 -23
17 -26 17 -20 3 4 -11 -1 -20 -13 -27 -17 -9 -20 -7 -20 10 0 11 -4 20 -10 20
-5 0 -10 -7 -10 -16 0 -14 -7 -15 -40 -10 -31 5 -42 3 -46 -9 -3 -8 -10 -12
-15 -9 -6 3 -16 0 -24 -6 -12 -10 -16 -9 -21 4 -3 9 -10 16 -15 16 -4 0 -6 -6
-3 -14 4 -10 -5 -16 -26 -21 -40 -9 -45 -3 -41 45 2 26 -2 40 -9 40 -7 0 -10
-7 -7 -15 4 -8 2 -17 -3 -20 -5 -3 -6 -13 -3 -22 4 -10 2 -14 -5 -9 -6 3 -15
-2 -21 -11 -9 -16 -11 -13 -17 15 -6 29 -10 33 -30 29 -13 -2 -24 0 -24 4 0
19 -19 7 -22 -13 -3 -23 -24 -23 -22 0 2 15 -8 16 -23 1 -13 -13 -57 7 -48 22
4 5 11 7 16 4 15 -10 10 11 -6 25 -12 10 -15 7 -21 -14 -3 -14 -10 -26 -15
-26 -5 0 -9 -8 -9 -17 -1 -17 -1 -17 -14 -1 -15 20 -38 5 -29 -18 3 -8 0 -14
-7 -14 -7 0 -19 -8 -27 -17 -10 -13 -16 -15 -19 -5 -8 18 -31 15 -43 -5 -9
-17 -10 -17 -17 1 -5 12 -3 21 4 24 7 2 12 13 12 25 0 19 -1 19 -12 5 -7 -9
-24 -18 -38 -20 -15 -2 -26 -11 -28 -22 -3 -11 0 -16 7 -12 6 4 11 2 11 -3 0
-13 -2 -13 -33 -2 -21 8 -26 6 -30 -11 -4 -13 -11 -19 -21 -15 -10 4 -14 0
-11 -14 6 -28 -5 -55 -16 -38 -6 10 -10 10 -23 0 -19 -16 -64 -5 -47 12 7 7 7
15 -2 26 -6 9 -1 7 12 -4 14 -11 21 -14 17 -7 -6 10 -1 11 20 6 19 -5 25 -4
20 5 -4 6 -12 9 -17 6 -14 -9 -10 7 6 29 13 17 13 21 -6 34 -24 17 -37 9 -19
-12 10 -13 6 -16 -29 -22 -28 -4 -41 -12 -42 -23 0 -10 -2 -12 -6 -3 -2 6 -9
10 -13 7 -5 -3 -12 0 -16 6 -4 8 -3 9 4 5 7 -4 12 -2 12 3 0 6 -11 11 -23 11
-13 0 -32 9 -43 21 -16 17 -16 22 -4 29 12 8 12 10 1 10 -10 0 -11 3 -2 14 9
10 9 16 1 21 -7 4 -14 -2 -17 -14 -3 -12 -11 -21 -18 -21 -8 0 -20 -3 -28 -6
-11 -4 -14 0 -11 13 3 12 -4 22 -22 30 -21 10 -25 10 -20 -2 7 -20 -24 -36
-46 -24 -20 11 -42 3 -33 -11 7 -11 -34 -34 -43 -24 -4 4 -1 9 6 11 23 8 12
25 -13 21 -27 -6 -35 9 -11 18 8 3 14 15 13 25 -1 18 -3 18 -13 5 -6 -9 -16
-16 -23 -16 -6 0 -14 -6 -17 -14 -3 -8 -12 -12 -19 -10 -11 5 -10 10 3 25 9
11 15 23 12 27 -9 13 -70 8 -70 -5 0 -7 -4 -13 -10 -13 -12 0 -12 2 1 36 l10
28 -22 -19 c-12 -11 -19 -14 -15 -7 4 6 2 12 -3 12 -15 0 -14 -27 2 -34 16 -8
-34 0 -54 8 -15 7 -18 0 -20 -46 0 -25 -19 -23 -19 2 0 24 -8 25 -30 5 -14
-13 -16 -12 -18 11 -1 14 2 23 7 19 15 -9 21 11 14 45 -5 26 -8 29 -15 16 -5
-9 -8 -22 -7 -28 5 -29 -21 -68 -43 -68 -17 0 -20 2 -9 9 12 8 11 14 -6 40
l-19 32 -12 -26 c-7 -15 -10 -30 -7 -35 3 -5 0 -12 -6 -16 -8 -5 -10 8 -5 45
4 32 2 51 -4 51 -9 0 -14 -14 -11 -32 0 -5 -4 -8 -10 -8 -6 0 -9 6 -6 14 6 14
-10 36 -26 36 -5 0 -7 -7 -3 -15 5 -14 2 -14 -24 0 -24 12 -28 13 -24 1 3 -7
-2 -16 -11 -19 -12 -5 -14 -1 -9 17 6 24 -13 47 -25 29 -9 -13 -41 -24 -41
-14 0 10 -35 22 -70 25 -18 1 -24 6 -22 19 2 11 -4 17 -18 17 -11 0 -20 4 -20
9 0 5 -9 7 -19 4 -11 -3 -18 -10 -17 -16 2 -7 1 -9 -1 -4 -3 4 -11 7 -19 7 -8
0 -14 10 -14 23 0 21 5 23 49 23 32 0 47 -4 43 -10z m-647 -56 c4 -6 14 -8 24
-5 12 3 17 -1 18 -15 2 -24 -13 -35 -49 -35 -30 0 -37 12 -13 21 8 4 15 13 15
21 0 8 -4 11 -10 8 -5 -3 -10 -1 -10 4 0 14 17 14 25 1z m215 -10 c0 -5 -4
-10 -10 -10 -5 0 -10 5 -10 10 0 6 5 10 10 10 6 0 10 -4 10 -10z m-362 -12
c-4 -17 -19 -28 -38 -28 -10 0 -7 7 10 20 30 23 31 24 28 8z m732 2 c4 0 11
-10 15 -22 l8 -23 4 23 c4 23 27 30 38 12 3 -5 -1 -10 -9 -10 -22 0 -40 -59
-22 -71 10 -8 66 6 75 18 12 16 31 12 31 -6 0 -21 -26 -36 -35 -20 -8 13 -25
1 -25 -17 0 -11 6 -13 21 -9 18 6 20 4 14 -14 -4 -12 -2 -21 4 -21 6 0 11 -4
11 -10 0 -5 -7 -10 -15 -10 -8 0 -15 -5 -15 -11 0 -5 -8 -9 -17 -7 -10 1 -23
-1 -30 -5 -6 -4 -14 -3 -17 2 -4 5 3 13 14 16 25 8 21 31 -5 27 -13 -3 -16 1
-12 12 5 11 0 16 -13 16 -11 0 -20 4 -20 10 0 5 -7 7 -15 4 -17 -7 -19 4 -5
26 7 11 10 11 10 2 0 -7 5 -10 10 -7 6 4 7 13 1 23 -4 9 -7 25 -6 35 2 9 -6
24 -18 33 -17 13 -18 15 -4 10 10 -3 22 -6 27 -6z m115 -20 c3 -5 1 -10 -4
-10 -6 0 -11 5 -11 10 0 6 2 10 4 10 3 0 8 -4 11 -10z m-500 -20 c-3 -5 -12
-10 -18 -10 -7 0 -6 4 3 10 19 12 23 12 15 0z m155 0 c0 -5 -5 -10 -11 -10 -5
0 -7 5 -4 10 3 6 8 10 11 10 2 0 4 -4 4 -10z m165 0 c-3 -5 -11 -10 -16 -10
-6 0 -7 5 -4 10 3 6 11 10 16 10 6 0 7 -4 4 -10z m-778 -6 c-3 -3 -12 -4 -19
-1 -8 3 -5 6 6 6 11 1 17 -2 13 -5z m650 0 c-3 -3 -12 -4 -19 -1 -8 3 -5 6 6
6 11 1 17 -2 13 -5z m-112 -12 c20 -14 13 -27 -16 -27 -33 0 -34 1 -16 20 14
16 18 17 32 7z m3055 -13 c0 -5 -4 -9 -10 -9 -5 0 -10 7 -10 16 0 8 5 12 10 9
6 -3 10 -10 10 -16z m-2803 -4 c0 -8 -4 -15 -9 -15 -10 0 -11 14 -1 23 9 10
10 9 10 -8z m-336 -32 c-10 -17 -10 -16 -11 3 0 23 13 41 18 25 2 -6 -1 -18
-7 -28z m157 6 c-6 -4 -18 -5 -26 -1 -10 3 -13 1 -8 -6 4 -7 2 -12 -3 -12 -19
0 -12 22 9 27 11 3 20 10 20 17 0 6 4 4 10 -4 6 -9 5 -17 -2 -21z m-508 11 c0
-5 -4 -10 -10 -10 -5 0 -10 5 -10 10 0 6 5 10 10 10 6 0 10 -4 10 -10z m3501
-16 c17 -21 3 -29 -16 -10 -9 9 -21 16 -26 16 -5 0 -9 4 -9 9 0 13 37 2 51
-15z m-2464 4 c8 19 22 14 16 -7 -3 -13 -16 -20 -40 -23 -38 -5 -54 7 -23 17
11 3 20 12 20 18 0 7 4 6 11 -3 8 -11 12 -12 16 -2z m-927 -16 c0 -5 -7 -9
-15 -9 -8 0 -12 4 -9 9 3 4 9 8 15 8 5 0 9 -4 9 -8z m320 -24 c0 -12 -13 -9
-32 6 -26 19 -22 26 7 13 14 -7 25 -15 25 -19z m908 4 c2 -12 -2 -22 -9 -22
-9 0 -8 -4 1 -15 10 -12 10 -15 -1 -16 -10 0 -11 -2 -1 -6 15 -6 6 -23 -14
-23 -11 0 -12 5 -6 18 11 19 0 56 -19 68 -9 5 -7 9 7 15 27 11 39 6 42 -19z
m-693 -2 c3 -5 2 -10 -4 -10 -5 0 -13 5 -16 10 -3 6 -2 10 4 10 5 0 13 -4 16
-10z m-1067 -44 c1 -28 -2 -34 -14 -29 -8 3 -13 12 -10 20 3 8 6 24 6 34 0 35
17 11 18 -25z m118 17 c-10 -10 -19 5 -10 18 6 11 8 11 12 0 2 -7 1 -15 -2
-18z m759 8 c-3 -6 -11 -11 -17 -11 -6 0 -6 6 2 15 14 17 26 13 15 -4z m286
-4 c-10 -9 -11 -8 -5 6 3 10 9 15 12 12 3 -3 0 -11 -7 -18z m421 1 c-7 -7 -12
-8 -12 -2 0 6 3 14 7 17 3 4 9 5 12 2 2 -3 -1 -11 -7 -17z m-142 2 c0 -5 -4
-10 -10 -10 -5 0 -10 5 -10 10 0 6 5 10 10 10 6 0 10 -4 10 -10z m-1828 -23
c-24 -11 -38 -5 -28 11 3 6 16 8 28 4 l22 -5 -22 -10z m3113 13 c-3 -5 -11
-10 -16 -10 -6 0 -7 5 -4 10 3 6 11 10 16 10 6 0 7 -4 4 -10z m1115 -5 c0 -9
8 -19 17 -22 15 -6 15 -7 -3 -14 -13 -5 -6 -8 24 -8 23 -1 42 3 42 8 0 10 30
24 37 17 7 -6 -50 -56 -64 -56 -16 0 -17 -27 -1 -32 9 -3 9 -6 -1 -12 -8 -5
-14 -1 -18 13 -4 16 -13 21 -37 21 -24 0 -28 3 -16 10 23 15 -7 32 -34 19 -14
-7 -12 -3 7 13 15 13 27 31 27 41 0 9 5 17 10 17 6 0 10 -7 10 -15z m-3923
-17 c-3 -8 -6 -5 -6 6 -1 11 2 17 5 13 3 -3 4 -12 1 -19z m1103 12 c0 -5 -2
-10 -4 -10 -3 0 -8 5 -11 10 -3 6 -1 10 4 10 6 0 11 -4 11 -10z m679 -11 c-8
-4 -14 -14 -14 -20 0 -7 -6 -14 -12 -16 -7 -3 -13 1 -13 8 0 16 33 48 44 41 4
-2 2 -8 -5 -13z m-745 3 c2 -4 -4 -9 -15 -9 -10 -1 -19 2 -19 8 0 11 27 12 34
1z m226 -2 c0 -5 -7 -10 -16 -10 -8 0 -12 5 -9 10 3 6 10 10 16 10 5 0 9 -4 9
-10z m253 -14 c-6 -30 -40 -40 -61 -19 -15 14 -14 15 7 8 17 -5 26 -2 37 14
19 27 22 26 17 -3z m211 -38 c-3 -4 -11 -8 -17 -7 -9 0 -9 2 1 6 15 6 16 23 2
23 -6 0 -15 -12 -21 -26 -5 -15 -11 -25 -14 -23 -8 9 -13 59 -5 54 5 -3 17 2
27 12 17 18 18 18 25 -6 4 -13 5 -28 2 -33z m1296 41 c0 -5 -4 -9 -10 -9 -5 0
-10 7 -10 16 0 8 5 12 10 9 6 -3 10 -10 10 -16z m268 0 c-7 -5 -19 -9 -27 -9
-11 0 -11 3 -1 14 6 8 18 12 27 9 12 -5 12 -7 1 -14z m-3938 -13 c9 -25 7 -63
-3 -58 -4 1 -12 2 -18 2 -6 0 -9 7 -5 15 4 10 -1 15 -14 15 -11 0 -20 5 -20
10 0 6 7 10 15 10 8 0 15 7 15 15 0 23 20 18 30 -9z m3853 4 c6 -24 -8 -36
-17 -14 -8 22 -7 34 3 34 5 0 11 -9 14 -20z m1031 -23 c-12 -7 -19 -7 -22 1
-2 6 -10 8 -19 5 -8 -3 -19 0 -24 8 -13 21 31 29 59 11 22 -14 22 -16 6 -25z
m-4456 17 c23 -5 22 -6 -14 -34 -44 -36 -43 -35 -41 -10 1 11 7 20 14 20 6 0
14 3 16 8 3 4 -9 7 -25 7 -17 0 -33 5 -35 11 -3 10 30 10 85 -2z m2222 6 c0
-5 -2 -10 -4 -10 -3 0 -8 5 -11 10 -3 6 -1 10 4 10 6 0 11 -4 11 -10z m99 -32
c1 -4 -5 -5 -13 -2 -8 3 -12 13 -8 27 5 20 6 20 13 1 4 -10 8 -22 8 -26z m791
22 c6 -11 7 -20 2 -20 -6 0 -12 9 -15 20 -3 11 -3 20 -1 20 2 0 8 -9 14 -20z
m75 0 c3 5 11 8 16 4 6 -4 6 -11 -2 -20 -9 -10 -9 -14 0 -14 6 0 14 6 17 13 2
7 20 14 39 15 29 2 35 -1 35 -18 0 -24 -4 -25 -24 -4 -18 17 -40 9 -32 -12 6
-15 -29 -34 -62 -34 -12 0 -13 3 -5 11 13 13 7 35 -16 64 -16 20 -16 20 6 2
14 -12 23 -15 28 -7z m-1317 -16 c-4 -3 -17 -2 -30 2 -22 7 -22 7 -3 14 20 8
44 -4 33 -16z m1592 16 c0 -5 -2 -10 -4 -10 -3 0 -8 5 -11 10 -3 6 -1 10 4 10
6 0 11 -4 11 -10z m450 -11 c0 -5 -7 -9 -15 -9 -15 0 -20 12 -9 23 8 8 24 -1
24 -14z m-4106 -31 c-1 -13 -3 -27 -3 -32 -1 -5 -8 -2 -18 5 -9 8 -19 13 -22
11 -3 -1 -7 7 -7 18 -1 13 4 19 15 18 9 -2 15 3 13 11 -2 11 0 12 11 3 7 -7
13 -22 11 -34z m91 32 c3 -5 1 -10 -4 -10 -6 0 -11 5 -11 10 0 6 2 10 4 10 3
0 8 -4 11 -10z m475 0 c0 -5 -5 -10 -11 -10 -5 0 -7 5 -4 10 3 6 8 10 11 10 2
0 4 -4 4 -10z m1157 3 c-4 -3 1 -16 10 -27 18 -21 18 -21 -4 -2 -20 16 -23 36
-6 36 4 0 3 -3 0 -7z m898 -14 c7 -22 -5 -43 -12 -21 -3 6 -11 12 -19 12 -8 0
-11 6 -8 15 9 22 32 18 39 -6z m1280 2 c-3 -6 -11 -11 -16 -11 -5 0 -4 6 3 14
14 16 24 13 13 -3z m-1581 -4 c3 3 6 1 6 -5 0 -7 -5 -12 -11 -12 -6 0 -8 -8
-5 -18 4 -13 1 -19 -9 -19 -10 0 -13 6 -9 19 3 12 0 18 -10 18 -9 0 -13 6 -10
15 4 11 11 12 24 5 9 -5 20 -6 24 -3z m800 -19 c-4 -6 -10 -5 -15 3 -14 22
-10 33 6 19 8 -7 12 -17 9 -22z m-653 11 c11 -5 17 -14 13 -20 -7 -12 15 -41
27 -33 5 3 9 -1 9 -9 0 -8 -8 -17 -19 -20 -15 -3 -17 0 -13 16 4 16 2 19 -11
14 -12 -5 -17 -1 -17 13 0 13 -5 17 -14 14 -11 -4 -13 0 -9 15 6 24 8 25 34
10z m526 -11 c51 -14 66 -37 22 -32 -17 2 -27 0 -24 -5 3 -5 1 -12 -5 -16 -5
-3 -10 3 -10 15 0 12 -10 25 -25 32 -25 11 -37 35 -12 24 6 -3 31 -11 54 -18z
m863 1 c0 -5 -7 -9 -15 -9 -15 0 -20 12 -9 23 8 8 24 -1 24 -14z m-3300 -4 c0
-8 -7 -15 -16 -15 -14 0 -14 3 -4 15 7 8 14 15 16 15 2 0 4 -7 4 -15z m1480 5
c0 -5 -2 -10 -4 -10 -3 0 -8 5 -11 10 -3 6 -1 10 4 10 6 0 11 -4 11 -10z
m2410 -14 c0 -2 -9 -6 -20 -9 -15 -4 -20 0 -20 14 0 17 3 18 20 9 11 -6 20
-12 20 -14z m-4510 -1 c0 -8 -7 -15 -15 -15 -9 0 -12 6 -9 15 4 8 10 15 15 15
5 0 9 -7 9 -15z m425 5 c3 -5 1 -10 -4 -10 -6 0 -11 5 -11 10 0 6 2 10 4 10 3
0 8 -4 11 -10z m3586 -7 c13 -16 12 -17 -3 -4 -17 13 -22 21 -14 21 2 0 10 -8
17 -17z m69 -3 c0 -5 -7 -10 -15 -10 -8 0 -15 5 -15 10 0 6 7 10 15 10 8 0 15
-4 15 -10z m717 -12 c-3 -8 -6 -5 -6 6 -1 11 2 17 5 13 3 -3 4 -12 1 -19z
m-2457 8 c0 -3 -4 -8 -10 -11 -5 -3 -10 -1 -10 4 0 6 5 11 10 11 6 0 10 -2 10
-4z m364 -13 c-17 -13 -17 -14 10 -7 27 6 27 5 16 -15 -6 -12 -9 -27 -7 -34 4
-12 -20 -36 -35 -37 -17 0 -6 39 15 53 19 14 19 16 4 16 -10 1 -20 -6 -23 -14
-6 -15 -35 -20 -47 -9 -13 13 5 25 19 13 11 -9 14 -8 14 5 0 9 -7 16 -15 16
-14 0 -20 12 -11 21 3 2 21 4 42 5 33 1 35 -1 18 -13z m60 2 c3 -8 1 -15 -4
-15 -6 0 -10 7 -10 15 0 8 2 15 4 15 2 0 6 -7 10 -15z m632 -12 c-8 -33 -38
-61 -45 -41 -2 6 1 14 8 16 9 3 9 8 -1 20 -8 9 -8 13 -2 9 7 -4 14 0 18 8 10
27 29 17 22 -12z m839 17 c3 -5 1 -10 -4 -10 -6 0 -11 5 -11 10 0 6 2 10 4 10
3 0 8 -4 11 -10z m131 -17 c14 2 18 -3 16 -18 -2 -11 -7 -24 -12 -29 -11 -11
-40 0 -40 14 0 6 5 8 10 5 6 -3 10 -1 10 5 0 6 -11 8 -26 6 -32 -6 -63 18 -37
28 9 4 20 1 25 -6 7 -12 12 -4 9 17 -1 6 5 2 12 -7 7 -9 22 -16 33 -15z m539
17 c3 -5 1 -10 -4 -10 -6 0 -11 5 -11 10 0 6 2 10 4 10 3 0 8 -4 11 -10z m36
-17 c3 -37 -3 -49 -42 -86 -35 -35 -39 -36 -39 -17 0 16 4 20 15 16 11 -4 15
0 13 12 -2 10 2 16 11 14 8 -2 11 3 8 12 -3 8 0 20 8 26 8 6 11 18 8 26 -3 8
0 14 6 14 6 0 12 -8 12 -17z m-3591 -3 c0 -5 -7 -10 -16 -10 -8 0 -12 5 -9 10
3 6 10 10 16 10 5 0 9 -4 9 -10z m2241 -23 c-8 -8 -11 -7 -11 4 0 20 13 34 18
19 3 -7 -1 -17 -7 -23z m294 23 c-3 -5 -11 -10 -16 -10 -6 0 -7 5 -4 10 3 6
11 10 16 10 6 0 7 -4 4 -10z m-1030 -16 c15 -10 25 -12 25 -5 0 18 39 12 49
-8 12 -22 -11 -52 -24 -30 -4 6 -1 15 6 20 7 4 10 11 6 15 -4 4 -13 2 -19 -4
-15 -15 -58 -16 -58 -2 0 6 -7 10 -15 10 -8 0 -15 5 -15 10 0 15 17 12 45 -6z
m602 -6 c-3 -8 -6 -5 -6 6 -1 11 2 17 5 13 3 -3 4 -12 1 -19z m386 7 c-3 -9
-8 -14 -10 -11 -3 3 -2 9 2 15 9 16 15 13 8 -4z m-702 -4 c-11 -7 -10 -11 5
-20 17 -11 17 -11 -5 -9 -32 4 -38 38 -8 38 16 0 19 -3 8 -9z m394 0 c-3 -5
-1 -12 5 -16 5 -3 10 -10 10 -15 0 -6 -9 -2 -20 7 -14 13 -16 19 -7 25 16 10
19 10 12 -1z m414 6 c-2 -1 -11 -8 -20 -15 -14 -10 -18 -10 -23 3 -4 11 1 15
21 15 14 0 24 -1 22 -3z m601 -17 c0 -5 -4 -10 -10 -10 -5 0 -10 5 -10 10 0 6
5 10 10 10 6 0 10 -4 10 -10z m-4552 -12 c-3 -7 -12 -14 -21 -16 -12 -2 -15 1
-11 12 7 19 38 22 32 4z m2982 8 c0 -3 -4 -8 -10 -11 -5 -3 -10 -1 -10 4 0 6
5 11 10 11 6 0 10 -2 10 -4z m80 -1 c0 -2 -15 -12 -32 -21 -18 -9 -36 -21 -39
-26 -4 -6 -9 -6 -13 1 -4 6 -3 11 3 11 5 0 13 9 16 20 4 14 15 20 36 20 16 0
29 -2 29 -5z m1194 -14 c4 -5 -1 -8 -9 -7 -21 3 -31 16 -12 16 9 0 18 -4 21
-9z m-1149 -11 c-3 -5 -12 -10 -18 -10 -7 0 -6 4 3 10 19 12 23 12 15 0z
m1341 -6 c-3 -9 -6 -20 -6 -25 0 -5 -9 -9 -20 -9 -24 0 -25 4 -3 30 21 24 38
26 29 4z m-1802 -7 c4 4 4 -1 0 -10 -3 -10 -7 -17 -8 -15 -1 2 -8 12 -16 23
-14 18 -13 19 1 8 9 -7 19 -10 23 -6z m773 -9 c-3 -8 -6 -5 -6 6 -1 11 2 17 5
13 3 -3 4 -12 1 -19z m1083 12 c0 -5 -8 -10 -17 -10 -15 0 -16 2 -3 10 19 12
20 12 20 0z m10 -24 c0 -3 -4 -8 -10 -11 -5 -3 -10 -1 -10 4 0 6 5 11 10 11 6
0 10 -2 10 -4z m310 -5 c0 -6 -4 -12 -10 -16 -5 -3 -7 -12 -4 -19 3 -8 1 -17
-5 -21 -12 -7 -16 47 -4 58 9 10 23 8 23 -2z m-1830 -21 c0 -5 -5 -10 -11 -10
-5 0 -7 5 -4 10 3 6 8 10 11 10 2 0 4 -4 4 -10z m145 0 c-3 -5 -11 -10 -16
-10 -6 0 -7 5 -4 10 3 6 11 10 16 10 6 0 7 -4 4 -10z m1769 -22 c-3 -5 -2 -8
3 -7 4 1 16 1 27 0 16 -1 16 -3 -5 -21 -13 -10 -20 -19 -15 -20 5 0 3 -7 -4
-15 -7 -8 -16 -12 -21 -9 -5 3 -9 0 -9 -5 0 -6 -4 -11 -9 -11 -5 0 -3 13 5 30
16 31 9 64 -7 39 -7 -12 -9 -12 -9 0 0 23 32 54 41 39 4 -7 5 -16 3 -20z
m-399 13 c3 -5 1 -12 -5 -16 -5 -3 -10 1 -10 9 0 18 6 21 15 7z m-4065 -45 c0
-3 -4 -8 -10 -11 -5 -3 -10 -1 -10 4 0 6 5 11 10 11 6 0 10 -2 10 -4z m4340
-6 c0 -5 -4 -10 -10 -10 -5 0 -10 5 -10 10 0 6 5 10 10 10 6 0 10 -4 10 -10z
m55 -11 c-6 -9 -45 -8 -45 1 0 13 12 18 30 13 11 -3 17 -9 15 -14z m-4510 -10
c-10 -15 -25 -10 -19 6 4 8 10 12 15 9 5 -3 7 -10 4 -15z m-150 1 c3 -5 2 -10
-4 -10 -5 0 -13 5 -16 10 -3 6 -2 10 4 10 5 0 13 -4 16 -10z m115 -15 c0 -2
-7 -5 -15 -9 -9 -3 -15 0 -15 9 0 9 6 12 15 9 8 -4 15 -7 15 -9z m2854 -10
c-4 -8 -8 -15 -10 -15 -2 0 -4 7 -4 15 0 8 4 15 10 15 5 0 7 -7 4 -15z m-3197
-17 c-3 -8 -6 -5 -6 6 -1 11 2 17 5 13 3 -3 4 -12 1 -19z m4830 16 c-3 -3 -12
-4 -19 -1 -8 3 -5 6 6 6 11 1 17 -2 13 -5z m-4780 -29 c-4 -8 -12 -15 -19 -14
-10 0 -10 2 0 6 6 2 12 12 12 21 0 8 3 13 6 9 4 -3 4 -13 1 -22z m163 11 c0
-8 -4 -18 -10 -21 -5 -3 -10 3 -10 14 0 12 5 21 10 21 6 0 10 -6 10 -14z
m4708 -46 c3 -9 -1 -11 -12 -7 -9 4 -16 2 -16 -4 0 -6 -5 -7 -10 -4 -8 5 -7
11 1 21 14 17 31 14 37 -6z m246 14 c9 -3 16 -16 16 -28 0 -20 1 -20 21 4 13
16 22 21 25 13 3 -7 12 -9 20 -6 22 8 16 -15 -7 -28 -15 -8 -18 -13 -10 -19 9
-5 8 -9 -5 -14 -16 -6 -16 -8 -4 -16 8 -6 11 -10 6 -10 -5 0 -2 -7 5 -16 7 -9
14 -23 15 -31 4 -22 25 -43 38 -36 6 3 6 1 -1 -7 -14 -16 -93 -23 -93 -9 0 5
5 9 10 9 6 0 2 9 -9 21 -11 12 -24 18 -30 15 -11 -7 -25 29 -16 44 3 5 13 10
21 10 8 0 12 -4 9 -10 -3 -5 1 -10 9 -10 20 0 21 16 1 24 -8 3 -12 12 -9 21 8
20 -10 19 -26 -1 -8 -8 -22 -20 -32 -25 -14 -7 -18 -6 -18 6 0 9 9 15 21 15
17 0 19 3 10 14 -9 10 -9 16 -1 21 8 5 8 11 -1 21 -9 11 -9 14 0 14 7 0 9 5 6
10 -7 11 6 13 29 4z m-5130 -38 c8 3 16 -2 19 -10 4 -9 1 -16 -6 -16 -18 0
-37 21 -36 40 1 12 2 12 6 -2 2 -9 10 -15 17 -12z m4770 -8 c-5 -7 -1 -9 9 -5
10 3 17 2 17 -3 0 -5 11 -12 25 -16 33 -8 31 -15 -11 -42 -39 -24 -54 -22 -54
9 0 17 3 18 21 9 18 -10 20 -9 17 7 -3 13 -12 17 -31 16 -19 -1 -25 2 -20 10
4 7 8 15 9 20 1 4 2 10 3 13 0 3 6 2 11 -1 6 -4 7 -11 4 -17z m-4414 2 c0 -5
-5 -10 -11 -10 -5 0 -7 5 -4 10 3 6 8 10 11 10 2 0 4 -4 4 -10z m4560 -10 c0
-13 -11 -13 -30 0 -12 8 -11 10 8 10 12 0 22 -4 22 -10z m-5015 -20 c-2 -8 -4
-19 -5 -25 -6 -27 1 -47 14 -42 8 3 17 -1 20 -9 4 -9 -1 -14 -14 -14 -11 0
-19 -3 -18 -7 2 -5 0 -9 -4 -10 -17 -6 -28 -3 -28 8 0 6 -7 17 -15 25 -8 9
-15 13 -15 9 0 -3 -5 -3 -11 1 -8 4 -8 9 0 17 8 8 15 6 24 -7 12 -16 14 -16
26 -2 9 10 9 16 3 16 -6 0 -9 6 -6 14 3 7 -2 16 -10 19 -26 10 -18 24 13 23
20 -1 28 -6 26 -16z m4269 4 c5 -14 4 -15 -9 -4 -17 14 -19 20 -6 20 5 0 12
-7 15 -16z m786 12 c0 -3 -4 -8 -10 -11 -5 -3 -10 -1 -10 4 0 6 5 11 10 11 6
0 10 -2 10 -4z m-4993 -14 c16 -10 20 -44 5 -49 -7 -3 -10 1 -6 11 4 11 0 16
-15 16 -14 0 -19 5 -15 15 7 17 13 18 31 7z m313 -22 c0 -5 -2 -10 -4 -10 -3
0 -8 5 -11 10 -3 6 -1 10 4 10 6 0 11 -4 11 -10z m4408 -31 c-2 -6 -8 -10 -13
-10 -5 0 -11 4 -13 10 -2 6 4 11 13 11 9 0 15 -5 13 -11z m270 -14 c-3 -29
-21 -35 -26 -9 -3 10 0 14 7 10 7 -5 9 -1 5 8 -3 9 -1 16 6 16 6 0 10 -11 8
-25z m302 5 c0 -5 -5 -10 -11 -10 -5 0 -7 5 -4 10 3 6 8 10 11 10 2 0 4 -4 4
-10z m-493 -16 c-3 -3 -12 -4 -19 -1 -8 3 -5 6 6 6 11 1 17 -2 13 -5z m-4957
-16 c0 6 5 12 11 12 6 0 8 -7 5 -16 -4 -11 1 -18 14 -21 11 -3 20 -9 20 -13 0
-5 -9 -6 -20 -3 -11 3 -20 1 -20 -5 0 -16 -35 -20 -54 -7 -14 11 -14 13 -2 18
9 4 18 2 21 -3 9 -15 25 -12 25 5 0 8 -4 15 -10 15 -5 0 -10 8 -10 18 0 14 2
15 10 2 6 -10 10 -11 10 -2z m4935 -8 c-4 -7 -18 -7 -43 -1 -2 1 -1 5 2 10 3
5 15 7 26 4 11 -3 18 -9 15 -13z m-295 -40 c0 -5 -2 -10 -4 -10 -3 0 -8 5 -11
10 -3 6 -1 10 4 10 6 0 11 -4 11 -10z m510 0 c0 -5 -5 -10 -11 -10 -5 0 -7 5
-4 10 3 6 8 10 11 10 2 0 4 -4 4 -10z m-5005 -10 c3 -5 1 -10 -4 -10 -6 0 -11
5 -11 10 0 6 2 10 4 10 3 0 8 -4 11 -10z m5205 -20 c0 -11 -4 -20 -9 -20 -6 0
-9 9 -8 20 1 11 5 20 9 20 4 0 8 -9 8 -20z m-5231 -19 c10 -7 10 -10 1 -16 -7
-4 -16 -1 -21 6 -6 10 -9 11 -9 2 0 -7 -4 -13 -10 -13 -5 0 -7 7 -4 15 7 17
22 19 43 6z m119 -3 c-6 -18 -28 -21 -28 -4 0 9 7 16 16 16 9 0 14 -5 12 -12z
m4465 -18 c-3 -11 -9 -20 -14 -20 -10 0 -12 24 -2 33 13 13 21 7 16 -13z m542
0 c3 -5 1 -10 -4 -10 -6 0 -11 5 -11 10 0 6 2 10 4 10 3 0 8 -4 11 -10z m53 1
c11 -7 11 -9 -1 -14 -16 -6 -27 0 -27 15 0 10 11 10 28 -1z m-171 -33 c-3 -8
-6 -5 -6 6 -1 11 2 17 5 13 3 -3 4 -12 1 -19z m-3617 2 c0 -5 -2 -10 -4 -10
-3 0 -8 5 -11 10 -3 6 -1 10 4 10 6 0 11 -4 11 -10z m3154 -16 c4 -10 1 -14
-6 -12 -15 5 -23 28 -10 28 5 0 13 -7 16 -16z m-4528 -31 c-10 -10 -19 5 -10
18 6 11 8 11 12 0 2 -7 1 -15 -2 -18z m109 -3 c3 -5 -1 -10 -10 -10 -9 0 -13
5 -10 10 3 6 8 10 10 10 2 0 7 -4 10 -10z m4895 2 c0 -4 -9 -8 -19 -8 -11 0
-17 4 -15 8 3 4 12 8 20 8 8 0 14 -4 14 -8z m150 1 c0 -5 -4 -14 -9 -21 -6
-11 -10 -10 -15 3 -3 10 -12 15 -21 11 -8 -3 -17 -1 -20 4 -4 6 9 10 29 10 20
0 36 -3 36 -7z m36 -30 c-10 -10 -19 5 -10 18 6 11 8 11 12 0 2 -7 1 -15 -2
-18z m-2046 7 c0 -5 -5 -10 -11 -10 -5 0 -7 5 -4 10 3 6 8 10 11 10 2 0 4 -4
4 -10z m1367 -12 c-3 -8 -6 -5 -6 6 -1 11 2 17 5 13 3 -3 4 -12 1 -19z m471
-8 c10 -16 10 -20 -2 -20 -31 0 -47 12 -35 26 15 19 22 18 37 -6z m-4948 -77
c0 -25 -23 -31 -50 -13 -13 9 -13 10 0 11 8 1 18 1 23 0 4 0 7 8 7 19 0 11 -4
20 -10 20 -5 0 -10 5 -10 12 0 6 9 3 20 -7 11 -10 20 -29 20 -42z m370 16 c0
-5 -4 -9 -10 -9 -5 0 -10 7 -10 16 0 8 5 12 10 9 6 -3 10 -10 10 -16z m4557
-11 c-3 -7 -5 -2 -5 12 0 14 2 19 5 13 2 -7 2 -19 0 -25z m-4869 -7 c-1 -28
-2 -29 -26 -18 -20 9 -22 13 -9 15 9 2 17 10 17 18 0 8 4 14 9 14 5 0 9 -13 9
-29z m4926 21 c3 -5 -1 -9 -9 -9 -8 0 -12 4 -9 9 3 4 7 8 9 8 2 0 6 -4 9 -8z
m-74 -12 c0 -5 -5 -10 -11 -10 -5 0 -7 5 -4 10 3 6 8 10 11 10 2 0 4 -4 4 -10z
m-3765 -10 c3 -5 1 -10 -4 -10 -6 0 -11 5 -11 10 0 6 2 10 4 10 3 0 8 -4 11
-10z m-785 -30 c0 -5 -4 -10 -10 -10 -5 0 -10 5 -10 10 0 6 5 10 10 10 6 0 10
-4 10 -10z m4480 -30 c0 -5 -5 -10 -11 -10 -5 0 -7 5 -4 10 3 6 8 10 11 10 2
0 4 -4 4 -10z m-3845 -28 c-8 -8 -25 10 -19 20 4 6 9 5 15 -3 4 -7 6 -15 4
-17z m153 10 c2 -7 -3 -12 -12 -12 -9 0 -16 7 -16 16 0 17 22 14 28 -4z m-278
4 c0 -3 -4 -8 -10 -11 -5 -3 -10 -1 -10 4 0 6 5 11 10 11 6 0 10 -2 10 -4z
m175 -6 c3 -5 1 -10 -4 -10 -6 0 -11 5 -11 10 0 6 2 10 4 10 3 0 8 -4 11 -10z
m188 -10 c-4 -16 -1 -20 18 -18 18 2 25 -2 27 -20 3 -22 27 -26 27 -4 0 22 13
22 17 0 4 -20 0 -23 -26 -25 -16 -1 -35 2 -42 8 -7 6 -17 8 -23 5 -5 -4 -16 0
-24 8 -13 13 -16 12 -25 -10 -7 -13 -17 -24 -24 -24 -9 0 -9 3 0 12 7 7 12 22
12 35 0 16 9 27 33 37 17 8 33 15 34 15 0 1 -1 -8 -4 -19z m1661 5 c3 -9 0
-15 -9 -15 -9 0 -12 6 -9 15 4 8 7 15 9 15 2 0 5 -7 9 -15z m1676 -5 c0 -5 -4
-10 -10 -10 -5 0 -10 5 -10 10 0 6 5 10 10 10 6 0 10 -4 10 -10z m401 -33 c-8
-8 -11 -8 -11 2 0 7 -5 9 -12 5 -7 -4 -4 2 7 13 16 16 21 17 23 5 2 -8 -1 -19
-7 -25z m-4011 25 c0 -13 -12 -22 -22 -16 -10 6 -1 24 13 24 5 0 9 -4 9 -8z
m-240 -25 c0 -12 -7 -33 -16 -45 -16 -23 -12 -58 5 -48 5 3 7 -3 4 -13 -5 -21
-34 -18 -30 2 1 7 -6 11 -15 9 -13 -2 -18 4 -18 19 0 14 5 19 14 16 20 -8 37
16 38 52 1 35 18 43 18 8z m380 9 c0 -12 -10 -14 -38 -7 -2 1 0 6 3 11 9 15
35 12 35 -4z m60 4 c0 -5 -4 -10 -10 -10 -5 0 -10 5 -10 10 0 6 5 10 10 10 6
0 10 -4 10 -10z m217 -8 c1 -10 -5 -19 -13 -19 -17 0 -18 9 -2 25 15 15 13 15
15 -6z m-497 -17 c0 -8 -7 -11 -21 -8 -19 5 -20 4 -10 -16 10 -18 9 -21 -10
-21 -19 0 -20 2 -8 17 12 15 12 16 -6 10 -13 -5 -10 0 10 17 31 25 45 25 45 1z
m690 10 c0 -8 -3 -15 -6 -15 -3 0 -12 7 -20 15 -14 13 -13 15 5 15 12 0 21 -6
21 -15z m325 -42 c-4 -21 -2 -33 5 -33 6 0 8 -4 5 -10 -12 -20 -25 -9 -25 20
0 17 -5 30 -12 30 -9 0 -9 3 1 9 13 8 13 12 0 27 -13 16 -12 16 9 3 19 -12 22
-20 17 -46z m-1087 35 c-2 -6 -13 -12 -24 -14 -19 -3 -19 -3 0 12 24 17 29 18
24 2z m130 -23 c-3 -3 -9 2 -12 12 -6 14 -5 15 5 6 7 -7 10 -15 7 -18z m79 19
c-3 -3 -12 -4 -19 -1 -8 3 -5 6 6 6 11 1 17 -2 13 -5z m646 -6 c-4 -7 -8 -17
-8 -22 0 -5 -6 -11 -12 -13 -20 -7 -15 25 5 36 23 14 25 13 15 -1z m3247 -18
c5 0 7 7 4 15 -4 8 -4 15 -1 15 8 0 42 -74 39 -84 -2 -5 4 -4 12 4 9 7 16 11
17 9 6 -33 5 -41 -7 -46 -8 -3 -12 -9 -9 -13 11 -18 -41 -4 -57 15 -16 18 -17
18 -18 3 0 -10 5 -18 11 -18 5 0 7 -5 4 -10 -4 -6 -10 -8 -15 -5 -4 3 -10 0
-12 -7 -3 -7 -10 -8 -17 -4 -11 7 -11 10 0 18 11 8 11 9 -1 5 -16 -5 -16 -7
-6 -49 5 -22 3 -26 -9 -22 -10 4 -15 0 -15 -10 0 -9 5 -16 10 -16 6 0 10 -4
10 -10 0 -5 -6 -10 -13 -10 -16 0 -40 47 -32 61 4 5 -2 9 -12 9 -17 1 -17 1 0
11 9 5 22 7 29 3 8 -5 9 3 5 28 -6 40 5 64 23 53 9 -5 11 -4 6 3 -4 7 -2 12 3
12 6 0 11 -4 11 -10 0 -5 7 -10 16 -10 14 0 15 2 3 17 -8 10 -9 14 -2 10 9 -6
9 1 2 25 -11 41 -11 48 2 26 5 -10 14 -18 19 -18z m-3824 5 c-3 -8 -1 -15 5
-15 6 0 9 -6 6 -14 -3 -7 0 -13 6 -12 7 0 13 -2 15 -6 1 -5 0 -8 -3 -8 -3 0
-16 0 -30 0 -23 0 -25 3 -19 28 7 24 6 26 -9 13 -15 -11 -17 -11 -17 2 0 14
14 22 44 26 4 0 6 -6 2 -14z m535 -14 c1 -9 1 -18 1 -22 0 -3 8 -10 19 -17 10
-7 19 -8 19 -3 0 5 -6 11 -12 14 -9 3 -8 7 4 12 11 4 24 1 33 -9 14 -14 14
-17 -4 -35 -19 -19 -19 -19 5 -25 13 -4 24 -11 24 -17 0 -6 -5 -7 -12 -3 -20
12 -68 10 -68 -3 0 -7 4 -13 9 -13 4 0 6 -11 3 -25 -2 -14 -8 -22 -13 -20 -4
3 -6 12 -2 20 3 8 0 15 -6 15 -6 0 -8 11 -5 30 8 39 -3 83 -19 73 -8 -4 -7 -1
2 10 11 15 11 17 -1 17 -8 0 -15 6 -15 14 0 19 37 7 38 -13z m3109 9 c0 -5 -4
-10 -10 -10 -5 0 -10 5 -10 10 0 6 5 10 10 10 6 0 10 -4 10 -10z m-4765 -20
c-6 -10 -45 -9 -45 1 0 10 23 17 37 11 7 -2 11 -8 8 -12z m1492 12 c9 -6 7
-11 -7 -20 -17 -11 -20 -10 -20 8 0 21 7 25 27 12z m771 -4 c-2 -6 -13 -12
-24 -14 -19 -3 -19 -3 0 12 24 17 29 18 24 2z m57 -11 c0 -7 8 -11 17 -9 12 2
15 -3 11 -18 -3 -11 -9 -23 -14 -26 -5 -3 -6 1 -3 9 3 8 -2 20 -11 27 -8 7
-15 19 -15 28 0 17 15 7 15 -11z m-2079 -14 c-4 -8 -9 -26 -13 -41 -5 -21 -3
-24 11 -19 9 4 16 2 16 -4 0 -5 11 -2 24 8 13 10 21 22 18 27 -3 5 0 6 5 3 6
-4 8 -18 5 -32 -3 -20 -7 -23 -18 -14 -11 9 -14 8 -14 -5 0 -9 7 -16 16 -16 9
0 23 -8 31 -17 14 -17 14 -17 10 2 -5 25 28 32 37 9 3 -8 2 -13 -3 -10 -5 3
-11 -4 -15 -17 -4 -15 0 -27 14 -39 35 -28 10 -53 -50 -50 -22 1 -71 11 -79
17 -6 3 -11 1 -11 -6 0 -14 -8 -9 -9 6 0 6 12 10 26 10 19 0 29 6 31 19 2 10
0 16 -6 12 -19 -12 -43 5 -37 28 2 11 2 15 -1 9 -13 -29 -19 -9 -18 60 2 91 1
88 20 80 8 -3 13 -12 10 -20z m327 -25 c9 -6 9 -8 0 -8 -7 0 -10 -6 -7 -14 3
-7 16 -12 29 -11 17 2 22 -1 18 -11 -5 -13 -40 -13 -62 1 -14 8 -25 71 -15 86
5 9 10 5 16 -12 5 -13 14 -27 21 -31z m390 24 c-13 -23 -53 -43 -53 -26 0 15
37 53 52 54 16 0 16 -2 1 -28z m583 13 c-21 -16 -17 -18 29 -15 35 2 24 -17
-12 -23 -13 -2 -26 -6 -29 -10 -12 -11 -24 -8 -24 6 0 18 29 57 43 57 7 0 3
-7 -7 -15z m64 5 c0 -5 -5 -10 -11 -10 -5 0 -7 5 -4 10 3 6 8 10 11 10 2 0 4
-4 4 -10z m193 4 c-7 -3 -9 -12 -6 -20 3 -8 0 -14 -6 -14 -12 0 -15 23 -4 33
3 4 11 7 17 6 7 0 6 -2 -1 -5z m97 -14 c0 -11 -4 -20 -9 -20 -18 0 -41 12 -41
22 0 6 6 5 15 -2 12 -10 15 -10 15 4 0 9 5 16 10 16 6 0 10 -9 10 -20z m310
16 c0 -3 -4 -8 -10 -11 -5 -3 -10 -1 -10 4 0 6 5 11 10 11 6 0 10 -2 10 -4z
m-176 -45 c-7 -9 -34 10 -34 24 0 13 3 12 18 -2 10 -10 17 -20 16 -22z m-1225
13 c4 3 13 0 21 -6 12 -8 12 -9 -2 -4 -11 3 -18 0 -18 -7 0 -8 -4 -6 -10 3 -5
8 -9 20 -9 25 0 6 3 4 6 -3 2 -6 8 -10 12 -8z m620 -6 c-19 -7 -21 -11 -9 -18
8 -6 26 -8 40 -5 19 4 32 -1 50 -20 13 -14 32 -25 42 -25 13 0 18 -8 18 -29 0
-17 -4 -32 -9 -35 -5 -3 -7 -15 -4 -26 3 -11 9 -17 14 -14 5 3 7 9 4 14 -3 5
4 11 15 15 11 3 20 13 20 21 0 8 5 14 10 14 6 0 8 -12 6 -27 -3 -14 -3 -30 -1
-34 8 -13 45 3 45 19 0 12 3 13 12 4 7 -7 20 -12 31 -12 10 0 15 -4 12 -10 -3
-6 1 -7 9 -4 9 3 16 12 16 20 0 8 4 14 8 14 4 0 8 10 9 23 2 19 1 20 -8 5 -12
-21 -29 -24 -29 -4 0 24 26 26 77 6 26 -11 42 -19 36 -20 -7 0 -13 -6 -13 -14
0 -18 -43 -33 -48 -17 -6 17 -19 13 -25 -8 -4 -16 1 -18 39 -16 24 2 48 6 55
10 7 5 10 1 7 -11 -3 -18 -18 -19 -238 -20 -129 0 -243 3 -252 8 -10 5 -18 5
-18 1 0 -12 -374 -11 -382 2 -5 6 -8 6 -8 0 0 -6 -94 -10 -262 -10 l-263 0 -9
28 c-6 15 -16 27 -23 27 -7 0 -13 5 -13 10 0 11 20 13 44 4 13 -5 14 -9 5 -20
-7 -8 -9 -17 -6 -20 3 -3 10 4 17 15 11 21 11 21 35 -5 31 -33 45 -24 46 29 1
42 3 41 24 -20 9 -29 25 -30 32 -2 4 14 12 19 24 16 24 -6 25 11 2 21 -22 9
-27 29 -7 29 8 0 14 -4 14 -9 0 -4 5 -8 11 -8 5 0 7 5 3 11 -3 6 0 15 7 20 23
15 27 10 20 -23 -9 -41 -3 -77 9 -58 7 11 11 11 24 1 12 -10 16 -10 16 -2 0 7
4 10 9 7 5 -3 12 1 15 10 5 13 9 14 21 4 10 -8 15 -9 15 -2 0 7 7 9 17 5 12
-5 15 -2 10 10 -4 12 -1 17 9 17 9 0 18 -9 21 -20 6 -23 23 -27 23 -6 0 8 7
17 16 20 13 5 15 1 12 -19 -6 -28 -1 -30 26 -10 10 8 23 12 27 9 5 -3 9 2 9
10 0 20 24 21 40 1 11 -13 15 -13 21 -3 13 19 11 30 -3 22 -7 -4 -6 1 3 11 13
13 21 15 37 6 16 -8 24 -8 36 4 8 8 17 11 20 6 7 -10 25 -9 44 3 7 4 19 3 27
-4 17 -14 49 -5 40 11 -4 5 1 16 11 23 11 8 15 21 11 35 -3 11 -1 19 3 16 5
-3 11 -19 15 -35 4 -17 11 -30 16 -30 5 0 9 -6 9 -14 0 -24 20 -29 40 -11 17
15 19 15 23 -2 4 -17 4 -17 12 1 5 12 3 21 -6 26 -7 5 -10 12 -7 15 12 12 28
-6 28 -31 0 -32 24 -31 38 1 17 36 15 55 -5 55 -13 0 -10 6 11 19 17 11 34 17
40 14 5 -4 -1 -10 -15 -15z m411 14 c0 -4 -4 -12 -10 -18 -5 -5 -6 -14 -2 -19
12 -17 95 -42 125 -38 29 4 30 3 22 -20 -5 -12 -14 -11 -62 4 -30 10 -59 16
-64 13 -5 -3 -9 -1 -9 4 0 5 -9 12 -19 15 -13 3 -18 12 -16 23 2 11 4 25 4 32
1 13 31 17 31 4z m-535 -21 c-3 -6 -14 -11 -23 -11 -15 1 -15 2 2 15 21 16 32
13 21 -4z m-902 -8 c9 -3 17 -9 17 -13 0 -5 9 -6 20 -3 12 3 20 0 20 -7 0 -9
8 -7 26 5 30 20 57 6 33 -17 -20 -18 -39 -21 -56 -6 -12 9 -16 9 -24 -3 -16
-25 -7 -35 24 -30 5 1 7 -3 5 -9 -4 -14 -4 -14 -45 1 -31 10 -45 29 -23 29 6
0 10 6 10 14 0 9 -7 13 -20 11 -12 -2 -24 4 -30 15 -14 27 -12 33 8 25 9 -4
25 -10 35 -12z m627 1 c-25 -15 -25 -15 -1 -8 17 4 21 3 16 -6 -4 -7 -2 -16 4
-20 9 -5 8 -10 -4 -20 -12 -10 -15 -10 -15 2 0 8 -9 23 -20 33 -22 20 -15 30
22 32 23 2 23 2 -2 -13z m-945 -4 c4 -6 11 -7 17 -4 7 4 8 2 4 -4 -10 -16 6
-15 24 1 12 10 12 9 1 -5 -11 -15 -11 -19 3 -24 26 -10 8 -23 -22 -15 -16 5
-26 14 -26 24 1 10 -4 17 -12 17 -7 0 -16 5 -19 10 -3 6 1 10 9 10 8 0 18 -5
21 -10z m1785 6 c0 -3 -4 -8 -10 -11 -5 -3 -10 -1 -10 4 0 6 5 11 10 11 6 0
10 -2 10 -4z m-1196 -22 c3 -8 2 -12 -4 -9 -6 3 -10 10 -10 16 0 14 7 11 14
-7z m1260 1 c-7 -16 -24 -21 -24 -6 0 8 7 13 27 20 1 1 0 -6 -3 -14z m334 -3
c-10 -2 -18 -9 -18 -17 0 -7 -7 -16 -16 -19 -10 -4 -14 -2 -10 6 3 7 9 20 12
29 4 11 13 15 27 11 18 -5 19 -7 5 -10z m1436 3 c3 3 2 0 -3 -6 -10 -12 -31
-4 -31 13 0 7 4 7 13 -1 8 -6 17 -9 21 -6z m-3354 -10 c0 -8 -7 -15 -15 -15
-16 0 -20 12 -8 23 11 12 23 8 23 -8z m560 5 c0 -5 -4 -10 -10 -10 -5 0 -10 5
-10 10 0 6 5 10 10 10 6 0 10 -4 10 -10z m1415 0 c3 -5 1 -10 -4 -10 -6 0 -11
5 -11 10 0 6 2 10 4 10 3 0 8 -4 11 -10z m1465 0 c0 -5 -2 -10 -4 -10 -3 0 -8
5 -11 10 -3 6 -1 10 4 10 6 0 11 -4 11 -10z m-2795 -21 c-4 -5 -13 -9 -22 -9
-13 0 -13 3 -3 15 13 15 35 11 25 -6z m1215 0 c0 -5 -7 -9 -15 -9 -15 0 -20
12 -9 23 8 8 24 -1 24 -14z m191 -4 c5 3 6 -2 2 -11 -4 -12 -3 -15 5 -10 16
10 16 -41 0 -58 -10 -10 -16 -5 -32 27 -16 33 -17 40 -5 48 8 5 10 9 6 9 -5 0
-5 6 0 13 5 9 8 7 11 -6 2 -9 8 -15 13 -12z m1646 6 c1 -11 -6 -21 -18 -24
-24 -6 -25 11 -1 29 9 7 17 14 17 14 1 0 1 -9 2 -19z m-3177 -7 c0 -8 -5 -12
-10 -9 -6 4 -8 11 -5 16 9 14 15 11 15 -7z m2673 -31 c-7 -46 -6 -45 -27 -37
-9 3 -16 15 -16 25 0 24 17 25 24 2 3 -12 5 -9 4 7 0 36 1 40 11 40 6 0 7 -17
4 -37z m437 22 c0 -8 -9 -15 -20 -15 -17 0 -19 2 -8 15 17 19 28 19 28 0z
m-3892 -16 c9 -13 20 -19 32 -16 11 3 21 -1 24 -9 3 -8 -1 -14 -8 -14 -8 0
-16 -6 -19 -12 -3 -9 -10 -6 -22 10 -9 12 -25 22 -36 22 -22 0 -24 11 -7 28
16 16 21 15 36 -9z m612 -1 c0 -16 -3 -19 -11 -11 -6 6 -8 16 -5 22 11 17 16
13 16 -11z m50 12 c0 -5 -5 -10 -11 -10 -5 0 -7 5 -4 10 3 6 8 10 11 10 2 0 4
-4 4 -10z m1325 0 c-3 -6 0 -13 9 -16 8 -3 12 -12 10 -19 -3 -8 -12 -11 -20
-8 -8 3 -21 0 -29 -7 -12 -10 -15 -9 -15 4 0 9 7 19 15 22 8 4 15 12 15 20 0
8 5 14 11 14 5 0 7 -5 4 -10z m515 6 c0 -3 -4 -8 -10 -11 -5 -3 -10 -1 -10 4
0 6 5 11 10 11 6 0 10 -2 10 -4z m2425 -12 c-10 -8 -22 -11 -28 -7 -11 7 7 20
30 20 13 0 13 -2 -2 -13z m-2774 -14 c10 -6 19 -17 19 -25 0 -8 5 -15 11 -15
5 0 7 4 4 10 -3 6 1 7 9 4 18 -7 22 -24 6 -24 -5 0 -10 -7 -10 -16 0 -13 -6
-10 -27 10 -24 24 -29 26 -39 12 -17 -24 -23 -19 -21 19 2 37 14 43 48 25z
m1149 0 c0 -5 -7 -7 -15 -4 -8 4 -15 8 -15 10 0 2 7 4 15 4 8 0 15 -4 15 -10z
m535 -30 c-3 -5 1 -10 9 -10 9 0 16 5 16 11 0 5 4 8 9 4 5 -3 12 3 14 12 3 10
5 -1 6 -24 1 -34 4 -41 17 -36 13 5 13 7 2 14 -9 6 -5 9 13 9 14 0 34 9 44 20
23 26 55 29 34 3 -11 -13 -11 -17 -1 -20 6 -3 12 -11 12 -19 0 -17 -41 -19
-58 -2 -10 10 -15 10 -22 -2 -6 -9 -6 -16 0 -18 14 -5 12 -22 -2 -19 -7 1 -19
8 -26 15 -8 7 -23 10 -34 6 -14 -4 -18 -2 -14 5 4 6 0 11 -11 11 -15 0 -16 2
-3 10 13 8 12 10 -2 10 -10 0 -18 4 -18 10 0 5 -7 7 -15 4 -18 -7 -19 0 -5 27
10 17 13 18 26 4 8 -8 12 -19 9 -25z m596 17 c-10 -9 -11 -8 -5 6 3 10 9 15
12 12 3 -3 0 -11 -7 -18z m405 -14 c-11 -11 -19 6 -11 24 8 17 8 17 12 0 3
-10 2 -21 -1 -24z m-236 12 c0 -8 -4 -15 -10 -15 -5 0 -7 7 -4 15 4 8 8 15 10
15 2 0 4 -7 4 -15z m69 -29 c1 -6 -5 -1 -13 9 -8 11 -12 24 -8 29 5 9 20 -17
21 -38z m205 12 c-3 -4 0 -8 5 -8 6 0 11 -7 11 -15 0 -9 9 -15 23 -15 14 0 24
-6 24 -15 0 -17 0 -17 -49 -19 -20 -1 -34 2 -32 6 12 20 11 47 -2 52 -12 5
-13 10 -3 27 9 17 13 19 19 8 5 -7 6 -17 4 -21z m-2396 -3 c-9 -19 -18 -25
-42 -24 -17 0 -25 3 -18 6 10 4 10 8 1 19 -9 11 -8 14 4 14 8 0 17 -6 20 -12
3 -10 10 -8 23 5 24 23 26 22 12 -8z m112 15 c0 -5 -7 -10 -16 -10 -8 0 -12 5
-9 10 3 6 10 10 16 10 5 0 9 -4 9 -10z m90 2 c0 -5 -9 -19 -20 -32 -11 -13
-20 -18 -20 -11 0 7 -4 10 -9 7 -5 -4 -4 5 2 19 11 23 47 36 47 17z m130 -7
c0 4 4 4 9 0 6 -3 6 -17 -1 -35 -11 -34 -26 -32 -24 2 1 13 -5 29 -14 36 -13
11 -11 11 8 2 12 -6 22 -8 22 -5z m376 4 c3 -6 1 -16 -5 -22 -17 -17 -13 -26
8 -20 10 3 22 0 25 -6 5 -7 -4 -10 -25 -8 -29 2 -33 6 -32 30 1 15 1 29 2 32
2 9 20 5 27 -6z m424 -16 c0 -17 4 -20 23 -15 20 5 21 4 6 -11 -9 -9 -26 -14
-38 -12 -23 4 -27 -5 -9 -23 9 -9 9 -12 0 -12 -6 0 -14 11 -17 25 -15 73 -15
70 10 70 19 0 25 -5 25 -22z m533 13 c4 -10 1 -13 -9 -9 -15 6 -19 23 -5 23 5
0 11 -7 14 -14z m571 3 c-6 -11 -31 -12 -37 -1 -3 4 6 8 19 8 13 1 21 -2 18
-7z m-1734 -9 c0 -5 -4 -10 -10 -10 -5 0 -10 5 -10 10 0 6 5 10 10 10 6 0 10
-4 10 -10z m270 0 c0 -5 -5 -10 -11 -10 -5 0 -7 5 -4 10 3 6 8 10 11 10 2 0 4
-4 4 -10z m97 4 c-3 -3 -12 -4 -19 -1 -8 3 -5 6 6 6 11 1 17 -2 13 -5z m58
-14 c19 -8 19 -9 1 -9 -14 -1 -17 -7 -14 -26 3 -15 1 -25 -6 -25 -7 0 -12 16
-13 35 -1 37 1 38 32 25z m1105 -5 c0 -1 -7 -8 -15 -15 -13 -10 -15 -9 -15 8
0 15 5 20 15 16 8 -4 15 -7 15 -9z m-1663 -17 c-3 -8 -6 -5 -6 6 -1 11 2 17 5
13 3 -3 4 -12 1 -19z m473 -8 c-6 -12 -14 -19 -17 -17 -2 3 1 15 7 27 6 12 14
19 17 17 2 -3 -1 -15 -7 -27z m1290 26 c0 -3 -4 -8 -10 -11 -5 -3 -10 -1 -10
4 0 6 5 11 10 11 6 0 10 -2 10 -4z m-2664 -46 c14 0 23 -4 19 -9 -5 -8 -21 -9
-68 -2 -5 0 -5 7 0 14 4 6 8 15 9 20 4 20 7 20 11 0 3 -17 11 -23 29 -23z
m334 14 c0 -8 -7 -14 -15 -14 -15 0 -21 21 -9 33 10 9 24 -2 24 -19z m310 5
c0 -5 -4 -9 -10 -9 -5 0 -10 7 -10 16 0 8 5 12 10 9 6 -3 10 -10 10 -16z
m1600 11 c0 -5 -5 -10 -11 -10 -5 0 -7 5 -4 10 3 6 8 10 11 10 2 0 4 -4 4 -10z
m-2347 -18 c3 8 6 5 6 -7 1 -16 -6 -20 -34 -21 -23 0 -35 4 -35 13 0 7 6 12
13 11 6 -2 11 4 9 12 -3 11 1 10 16 -3 15 -14 21 -15 25 -5z m147 -9 c0 -13
-3 -13 -15 -3 -8 7 -15 16 -15 21 0 5 7 6 15 3 8 -4 15 -13 15 -21z m917 12
c0 -8 -6 -15 -14 -15 -7 0 -13 -4 -13 -8 0 -5 -7 -9 -15 -9 -8 0 -11 5 -7 11
4 6 7 14 8 19 1 4 2 9 3 12 3 13 38 3 38 -10z m353 5 c0 -5 -4 -10 -10 -10 -5
0 -10 5 -10 10 0 6 5 10 10 10 6 0 10 -4 10 -10z m424 4 c16 -6 11 -34 -7 -34
-6 0 -7 3 -4 7 4 3 2 12 -4 20 -12 14 -9 16 15 7z m456 -4 c0 -5 -4 -10 -10
-10 -5 0 -10 5 -10 10 0 6 5 10 10 10 6 0 10 -4 10 -10z m99 -24 c0 -7 -2 -6
-6 2 -2 6 -11 12 -19 12 -9 0 -12 5 -9 10 8 13 35 -6 34 -24z m71 24 c0 -5 -5
-10 -11 -10 -5 0 -7 5 -4 10 3 6 8 10 11 10 2 0 4 -4 4 -10z m160 6 c0 -3 -4
-8 -10 -11 -5 -3 -10 -1 -10 4 0 6 5 11 10 11 6 0 10 -2 10 -4z m-2370 -27 c0
-5 -4 -9 -8 -9 -5 0 -9 7 -9 15 0 8 4 12 9 9 4 -3 8 -9 8 -15z m270 11 c0 -5
-2 -10 -4 -10 -3 0 -8 5 -11 10 -3 6 -1 10 4 10 6 0 11 -4 11 -10z m2038 -2
c-9 -26 -88 -31 -88 -6 0 6 6 5 15 -2 11 -10 18 -9 30 4 19 19 48 21 43 4z
m429 -6 c1 -17 -19 -22 -57 -13 -5 1 40 28 50 30 3 1 6 -7 7 -17z m-2077 -8
c0 -8 -4 -12 -10 -9 -5 3 -10 10 -10 16 0 5 5 9 10 9 6 0 10 -7 10 -16z m1750
1 c0 -6 -8 -11 -19 -11 -10 0 -17 5 -14 11 2 7 10 12 18 12 8 0 15 -5 15 -12z
m190 1 c0 -8 -8 -13 -17 -11 -10 2 -22 4 -28 5 -5 1 -1 5 10 10 29 12 35 12
35 -4z m-2540 0 c0 -3 -4 -8 -10 -11 -5 -3 -10 -1 -10 4 0 6 5 11 10 11 6 0
10 -2 10 -4z m475 -6 c3 -6 -1 -7 -9 -4 -18 7 -21 14 -7 14 6 0 13 -4 16 -10z
m205 0 c0 -5 -2 -10 -4 -10 -3 0 -8 5 -11 10 -3 6 -1 10 4 10 6 0 11 -4 11
-10z m815 0 c3 -5 2 -10 -4 -10 -5 0 -13 5 -16 10 -3 6 -2 10 4 10 5 0 13 -4
16 -10z m153 5 c-10 -10 -49 -14 -43 -4 4 5 16 9 27 9 12 0 19 -2 16 -5z m367
-5 c3 -5 2 -10 -4 -10 -5 0 -13 5 -16 10 -3 6 -2 10 4 10 5 0 13 -4 16 -10z
m279 2 c3 -5 -1 -9 -9 -9 -8 0 -15 4 -15 9 0 4 4 8 9 8 6 0 12 -4 15 -8z
m-1345 -102 c6 0 11 -7 11 -16 0 -13 -3 -14 -15 -4 -8 6 -18 10 -22 7 -4 -3
-8 6 -8 19 0 20 2 22 11 9 6 -8 16 -15 23 -15z m71 19 c0 -9 -32 -17 -47 -12
-24 8 -13 19 17 19 17 0 30 -3 30 -7z m120 -1 c0 -4 -7 -8 -15 -8 -8 0 -15 4
-15 8 0 5 7 9 15 9 8 0 15 -4 15 -9z m200 -4 c0 -2 -11 -4 -25 -4 -14 0 -25 4
-25 9 0 4 11 6 25 3 14 -2 25 -6 25 -8z m170 -6 c0 -13 -32 -6 -37 9 -3 7 3 9
16 6 12 -3 21 -10 21 -15z m110 8 c0 -7 -6 -19 -14 -25 -11 -9 -12 -6 -8 14 5
26 22 35 22 11z m60 10 c0 -3 -4 -8 -10 -11 -5 -3 -10 -1 -10 4 0 6 5 11 10
11 6 0 10 -2 10 -4z m-500 -16 c0 -5 -5 -10 -11 -10 -5 0 -7 5 -4 10 3 6 8 10
11 10 2 0 4 -4 4 -10z m34 -20 c-6 -6 -10 -2 -11 12 -2 16 1 18 10 9 7 -7 8
-14 1 -21z m-377 -12 c-3 -7 -5 -2 -5 12 0 14 2 19 5 13 2 -7 2 -19 0 -25z
m38 -8 c-6 -9 -9 -9 -16 1 -10 17 0 34 13 21 6 -6 7 -16 3 -22z m765 15 c0 -8
-4 -15 -10 -15 -5 0 -10 7 -10 15 0 8 5 15 10 15 6 0 10 -7 10 -15z m-465 -35
c3 -5 2 -10 -4 -10 -5 0 -13 5 -16 10 -3 6 -2 10 4 10 5 0 13 -4 16 -10z"/>
<path d="M1150 4003 c-8 -13 -13 -14 -16 -5 -3 6 -10 12 -15 12 -14 0 -11 -37
4 -44 6 -3 3 -4 -9 -1 -12 3 -27 -1 -34 -10 -7 -8 -19 -15 -26 -15 -23 0 -16
-34 9 -45 14 -6 23 -21 25 -39 2 -16 0 -26 -6 -22 -6 3 -8 -2 -5 -14 5 -19 7
-18 39 7 36 27 43 43 19 43 -8 0 -15 7 -15 15 0 8 5 15 10 15 6 0 10 6 10 14
0 7 11 22 25 32 28 21 32 46 11 63 -11 10 -17 8 -26 -6z m-80 -83 c0 -5 -4
-10 -10 -10 -5 0 -10 5 -10 10 0 6 5 10 10 10 6 0 10 -4 10 -10z"/>
<path d="M976 3995 c4 -8 11 -15 16 -15 6 0 5 6 -2 15 -7 8 -14 15 -16 15 -2
0 -1 -7 2 -15z"/>
<path d="M1066 3985 c-3 -8 -1 -15 4 -15 6 0 10 7 10 15 0 8 -2 15 -4 15 -2 0
-6 -7 -10 -15z"/>
<path d="M2140 4010 c0 -5 5 -10 11 -10 5 0 7 5 4 10 -3 6 -8 10 -11 10 -2 0
-4 -4 -4 -10z"/>
<path d="M2231 3988 c-1 -10 -6 -18 -13 -18 -6 0 -3 -6 8 -14 14 -10 21 -11
26 -3 4 6 3 14 -1 17 -4 3 -11 12 -14 20 -4 12 -6 11 -6 -2z"/>
<path d="M1982 3978 c-7 -7 -12 -16 -12 -20 0 -15 15 -8 28 12 13 22 3 27 -16
8z"/>
<path d="M2690 3984 c0 -8 5 -12 10 -9 6 4 8 11 5 16 -9 14 -15 11 -15 -7z"/>
<path d="M2596 3975 c-3 -8 -1 -15 4 -15 6 0 10 7 10 15 0 8 -2 15 -4 15 -2 0
-6 -7 -10 -15z"/>
<path d="M2550 3976 c0 -2 7 -6 15 -10 8 -3 15 -1 15 4 0 6 -7 10 -15 10 -8 0
-15 -2 -15 -4z"/>
<path d="M2946 3953 c-6 -14 -5 -15 5 -6 7 7 10 15 7 18 -3 3 -9 -2 -12 -12z"/>
<path d="M5440 3963 c0 -5 5 -15 10 -23 8 -12 10 -11 10 8 0 12 -4 22 -10 22
-5 0 -10 -3 -10 -7z"/>
<path d="M5482 3958 c-6 -8 -11 -23 -11 -33 0 -11 -2 -29 -3 -40 -2 -11 2 -21
7 -22 6 -2 10 3 10 10 0 6 8 18 18 25 20 16 22 32 4 56 -11 15 -15 16 -25 4z"/>
<path d="M5556 3961 c-4 -7 -5 -15 -2 -18 9 -9 19 4 14 18 -4 11 -6 11 -12 0z"/>
<path d="M3150 3950 c0 -5 5 -10 11 -10 5 0 7 5 4 10 -3 6 -8 10 -11 10 -2 0
-4 -4 -4 -10z"/>
<path d="M3180 3950 c0 -5 5 -10 11 -10 5 0 7 5 4 10 -3 6 -8 10 -11 10 -2 0
-4 -4 -4 -10z"/>
<path d="M5355 3950 c-3 -5 -4 -10 -1 -10 2 0 11 -3 20 -6 11 -4 16 -1 16 10
0 18 -25 22 -35 6z"/>
<path d="M3066 3925 c-3 -9 0 -15 9 -15 8 0 15 7 15 15 0 8 -4 15 -9 15 -5 0
-11 -7 -15 -15z"/>
<path d="M5320 3930 c-17 -11 -8 -23 14 -18 9 2 12 8 8 15 -5 8 -13 9 -22 3z"/>
<path d="M3150 3920 c0 -5 5 -10 11 -10 5 0 7 5 4 10 -3 6 -8 10 -11 10 -2 0
-4 -4 -4 -10z"/>
<path d="M4976 3914 c-8 -22 -8 -24 6 -24 6 0 8 3 5 7 -4 3 -2 12 4 20 7 8 8
13 1 13 -5 0 -13 -7 -16 -16z"/>
<path d="M5535 3899 c-6 -8 8 -13 27 -10 4 0 5 -5 2 -13 -3 -7 1 -18 9 -24 11
-9 18 -8 31 7 10 11 24 17 31 15 11 -5 31 24 22 32 -6 6 -47 -9 -47 -17 0 -5
-16 -3 -35 5 -20 9 -37 11 -40 5z"/>
<path d="M5020 3890 c0 -5 7 -10 16 -10 8 0 12 5 9 10 -3 6 -10 10 -16 10 -5
0 -9 -4 -9 -10z"/>
<path d="M3866 3877 c3 -10 9 -15 12 -12 3 3 0 11 -7 18 -10 9 -11 8 -5 -6z"/>
<path d="M4840 3880 c0 -5 5 -10 11 -10 5 0 7 5 4 10 -3 6 -8 10 -11 10 -2 0
-4 -4 -4 -10z"/>
<path d="M4662 3857 c7 -8 17 -13 22 -10 4 3 12 -1 18 -8 7 -11 8 -10 6 5 -2
13 -13 21 -31 23 -25 3 -27 2 -15 -10z"/>
<path d="M3420 3850 c-8 -5 -12 -12 -9 -15 4 -3 12 1 19 10 14 17 11 19 -10 5z"/>
<path d="M3950 3851 c0 -6 4 -13 10 -16 6 -3 7 1 4 9 -7 18 -14 21 -14 7z"/>
<path d="M4280 3850 c0 -12 28 -25 36 -17 3 3 -4 10 -15 17 -15 7 -21 7 -21 0z"/>
<path d="M4825 3850 c3 -5 8 -10 11 -10 2 0 4 5 4 10 0 6 -5 10 -11 10 -5 0
-7 -4 -4 -10z"/>
<path d="M3827 3843 c-4 -3 -7 -15 -7 -26 0 -25 9 -17 15 12 4 22 2 25 -8 14z"/>
<path d="M5040 3830 c-6 -11 -8 -20 -6 -20 3 0 10 9 16 20 6 11 8 20 6 20 -3
0 -10 -9 -16 -20z"/>
<path d="M4970 3816 c0 -14 4 -27 9 -30 12 -8 22 20 15 39 -9 23 -24 18 -24
-9z"/>
<path d="M3597 3813 c-4 -3 -7 -14 -7 -24 0 -9 -5 -19 -11 -21 -7 -2 -6 -8 4
-16 12 -11 16 -7 21 24 7 37 5 49 -7 37z"/>
<path d="M3755 3807 c-4 -10 -5 -21 -1 -24 10 -10 18 4 13 24 -4 17 -4 17 -12
0z"/>
<path d="M3874 3809 c2 -9 -1 -22 -7 -28 -13 -13 -4 -24 16 -19 13 3 13 7 1
33 -8 17 -12 23 -10 14z"/>
<path d="M4272 3801 c2 -7 7 -12 11 -12 12 1 9 15 -3 20 -7 2 -11 -2 -8 -8z"/>
<path d="M4385 3800 c3 -5 8 -10 11 -10 2 0 4 5 4 10 0 6 -5 10 -11 10 -5 0
-7 -4 -4 -10z"/>
<path d="M3530 3785 c-10 -12 -10 -15 4 -15 9 0 16 7 16 15 0 8 -2 15 -4 15
-2 0 -9 -7 -16 -15z"/>
<path d="M4840 3780 c0 -11 7 -20 15 -20 17 0 18 2 9 24 -9 23 -24 20 -24 -4z"/>
<path d="M4911 3784 c0 -11 3 -14 6 -6 3 7 2 16 -1 19 -3 4 -6 -2 -5 -13z"/>
<path d="M3687 3776 c-3 -8 -3 -23 0 -35 4 -17 7 -18 18 -7 20 20 22 50 4 54
-9 1 -19 -4 -22 -12z"/>
<path d="M5610 3750 c0 -13 5 -18 15 -14 8 4 15 12 15 20 0 8 -7 14 -15 14 -8
0 -15 -9 -15 -20z"/>
<path d="M4845 3690 c-3 -5 -1 -10 4 -10 6 0 11 5 11 10 0 6 -2 10 -4 10 -3 0
-8 -4 -11 -10z"/>
<path d="M1875 3941 c-3 -5 -1 -12 5 -16 5 -3 10 1 10 9 0 18 -6 21 -15 7z"/>
<path d="M760 3686 c0 -2 9 -6 20 -9 11 -3 18 -1 14 4 -5 9 -34 13 -34 5z"/>
<path d="M5886 3222 c-3 -5 1 -9 9 -9 8 0 15 4 15 9 0 4 -4 8 -9 8 -6 0 -12
-4 -15 -8z"/>
<path d="M946 2554 c-5 -12 -2 -15 10 -10 8 3 18 6 20 6 2 0 4 5 4 10 0 16
-27 11 -34 -6z"/>
<path d="M2122 2621 c-7 -4 -15 -21 -18 -37 -4 -25 -1 -30 16 -31 12 -1 24 5
27 13 4 12 8 13 13 4 10 -16 30 -4 30 17 0 11 -6 14 -20 10 -17 -4 -20 -2 -15
14 7 20 -9 25 -33 10z"/>
<path d="M2020 2545 c0 -8 4 -15 9 -15 5 0 11 7 15 15 3 9 0 15 -9 15 -8 0
-15 -7 -15 -15z"/>
<path d="M1566 2494 c-4 -10 -1 -14 6 -12 15 5 23 28 10 28 -5 0 -13 -7 -16
-16z"/>
<path d="M1650 2490 c0 -5 5 -10 10 -10 6 0 10 5 10 10 0 6 -4 10 -10 10 -5 0
-10 -4 -10 -10z"/>
<path d="M760 3890 c0 -19 3 -21 12 -12 9 9 9 15 0 24 -9 9 -12 7 -12 -12z"/>
<path d="M6045 3890 c3 -5 8 -10 11 -10 2 0 4 5 4 10 0 6 -5 10 -11 10 -5 0
-7 -4 -4 -10z"/>
<path d="M488 3833 c7 -3 16 -2 19 1 4 3 -2 6 -13 5 -11 0 -14 -3 -6 -6z"/>
<path d="M587 3833 c-12 -3 -17 -13 -15 -34 2 -30 12 -37 23 -19 4 6 1 18 -7
27 -11 14 -10 15 10 9 17 -6 21 -4 16 8 -3 9 -7 15 -8 15 0 -1 -9 -3 -19 -6z"/>
<path d="M6015 3799 c-11 -17 1 -21 15 -4 8 9 8 15 2 15 -6 0 -14 -5 -17 -11z"/>
<path d="M5847 3793 c-10 -9 -9 -23 2 -23 5 0 11 7 15 15 5 15 -5 20 -17 8z"/>
<path d="M5890 3790 c-8 -5 -11 -12 -7 -16 4 -4 13 -2 19 4 15 15 7 24 -12 12z"/>
<path d="M5785 3740 c-3 -5 -3 -16 2 -22 4 -7 7 -22 8 -32 0 -20 25 -36 25
-17 0 17 40 13 42 -4 0 -8 1 -21 2 -27 1 -7 -5 -13 -12 -13 -7 0 -17 -7 -23
-15 -9 -12 -10 -12 -5 4 5 14 2 17 -10 12 -8 -3 -18 -6 -20 -6 -3 0 0 -9 6
-21 7 -12 20 -20 33 -19 59 5 75 0 81 -25 9 -35 26 -31 26 6 0 31 0 31 25 15
34 -22 48 -20 62 10 9 20 9 26 -3 31 -8 3 -22 -1 -32 -8 -15 -13 -16 -12 -3 4
8 9 11 20 8 24 -10 10 -78 -27 -71 -39 4 -6 1 -9 -7 -6 -8 3 -13 11 -11 17 1
6 -4 24 -13 40 -8 16 -11 31 -8 35 3 3 -8 11 -25 17 -18 6 -32 15 -32 20 0 14
-38 30 -45 19z"/>
<path d="M5970 3711 c0 -16 19 -23 41 -16 17 6 19 9 8 16 -19 12 -49 11 -49 0z"/>
<path d="M605 3649 c6 -33 15 -36 15 -6 0 15 -4 27 -9 27 -6 0 -8 -10 -6 -21z"/>
<path d="M5830 3639 c0 -5 5 -7 10 -4 6 3 10 8 10 11 0 2 -4 4 -10 4 -5 0 -10
-5 -10 -11z"/>
<path d="M6217 3633 c-4 -3 -7 -11 -7 -17 0 -6 5 -5 12 2 6 6 9 14 7 17 -3 3
-9 2 -12 -2z"/>
<path d="M6109 3617 c-33 -15 -26 -37 11 -37 23 0 27 -3 23 -20 -3 -12 0 -20
7 -20 9 0 11 10 7 30 -4 16 -2 32 3 35 16 10 11 25 -7 24 -10 0 -30 -6 -44
-12z"/>
<path d="M5850 3560 c-12 -8 -12 -10 2 -15 20 -8 41 2 33 16 -8 11 -16 11 -35
-1z"/>
<path d="M6201 3554 c-1 -7 -11 -15 -23 -18 l-23 -7 23 -11 c28 -14 43 -1 32
27 -5 11 -9 15 -9 9z"/>
<path d="M210 3544 c0 -17 17 -36 24 -26 3 5 -1 15 -9 22 -8 7 -15 9 -15 4z"/>
<path d="M6000 3532 c0 -5 3 -12 8 -16 4 -4 8 -16 8 -27 3 -42 4 -43 15 -32
14 14 1 83 -17 83 -8 0 -14 -4 -14 -8z"/>
<path d="M5950 3480 c-12 -16 -19 -30 -16 -30 8 0 56 46 56 54 0 15 -21 3 -40
-24z"/>
<path d="M170 3475 c-8 -10 -7 -16 7 -25 16 -10 16 -11 1 -6 -19 6 -26 -18 -8
-29 13 -8 1 -35 -16 -35 -8 0 -14 -9 -14 -20 0 -11 7 -20 15 -20 8 0 15 -5 15
-11 0 -16 -26 -39 -44 -39 -9 0 -16 -4 -16 -9 0 -6 12 -6 30 -1 21 6 30 5 31
-3 0 -7 5 2 10 18 5 17 7 42 5 57 -3 16 1 31 10 39 8 6 12 20 9 30 -3 9 -1 20
5 24 6 3 10 -3 10 -14 0 -16 6 -21 28 -20 27 0 27 0 3 10 -14 6 -21 15 -18 24
9 21 -48 48 -63 30z"/>
<path d="M6180 3486 c0 -12 32 -35 48 -36 6 0 12 5 12 10 0 6 -8 10 -18 10
-10 0 -23 5 -30 12 -7 7 -12 8 -12 4z"/>
<path d="M6048 3464 c-3 -3 -4 -14 -1 -24 6 -24 43 -22 43 3 0 10 -4 15 -10
12 -5 -3 -10 -1 -10 4 0 12 -13 15 -22 5z"/>
<path d="M320 3450 c-8 -5 -11 -12 -7 -16 4 -4 15 0 24 9 18 18 8 23 -17 7z"/>
<path d="M295 3410 c-3 -5 1 -10 10 -10 9 0 13 5 10 10 -3 6 -8 10 -10 10 -2
0 -7 -4 -10 -10z"/>
<path d="M6220 3410 c0 -5 4 -10 9 -10 6 0 13 5 16 10 3 6 -1 10 -9 10 -9 0
-16 -4 -16 -10z"/>
<path d="M240 3378 c0 -6 -3 -9 -6 -5 -14 14 -31 -18 -22 -42 5 -14 7 -30 4
-38 -6 -15 20 -18 29 -3 4 6 2 17 -5 25 -8 10 -8 15 1 21 8 5 9 3 4 -6 -6 -9
-4 -11 5 -5 10 6 10 10 -3 20 -15 11 -15 13 1 28 10 11 12 17 4 17 -7 0 -12
-5 -12 -12z"/>
<path d="M6070 3370 c16 -12 28 -16 35 -9 12 12 -11 29 -40 29 -18 0 -18 -2 5
-20z"/>
<path d="M440 3366 c0 -9 5 -16 10 -16 6 0 10 4 10 9 0 6 -4 13 -10 16 -5 3
-10 -1 -10 -9z"/>
<path d="M6140 3367 c0 -20 48 -39 68 -27 14 8 12 9 -10 10 -18 0 -28 5 -28
15 0 8 -7 15 -15 15 -8 0 -15 -6 -15 -13z"/>
<path d="M282 3348 c22 -34 28 -68 13 -68 -7 0 -16 -7 -19 -16 -5 -14 -1 -15
26 -10 18 4 43 7 56 8 41 1 24 41 -22 52 -23 6 -27 9 -15 17 12 7 11 9 -2 9
-9 0 -19 7 -23 15 -3 8 -11 15 -17 15 -8 0 -7 -7 3 -22z"/>
<path d="M6114 3319 c-17 -18 -17 -22 -4 -32 9 -7 14 -20 12 -29 -3 -14 3 -18
29 -18 l32 0 -19 23 c-10 12 -22 24 -26 27 -4 3 -6 16 -3 28 5 27 3 27 -21 1z"/>
<path d="M6065 3290 c4 -6 11 -8 16 -5 14 9 11 15 -7 15 -8 0 -12 -5 -9 -10z"/>
<path d="M135 3260 c4 -6 11 -8 16 -5 14 9 11 15 -7 15 -8 0 -12 -5 -9 -10z"/>
<path d="M200 3251 c0 -5 9 -11 20 -14 24 -6 27 8 4 17 -21 8 -24 8 -24 -3z"/>
<path d="M307 3233 c-10 -9 -9 -43 2 -43 5 0 11 6 14 13 6 17 -7 40 -16 30z"/>
<path d="M6159 3214 c-10 -12 -10 -20 -1 -35 11 -17 9 -19 -14 -19 -38 0 -27
-31 20 -53 29 -14 41 -15 52 -6 12 10 12 13 -2 23 -22 16 -14 49 14 61 24 11
29 24 10 29 -47 15 -67 15 -79 0z"/>
<path d="M311 3164 c0 -11 3 -14 6 -6 3 7 2 16 -1 19 -3 4 -6 -2 -5 -13z"/>
<path d="M361 3126 c7 -14 19 -26 27 -26 13 0 13 3 0 22 -22 33 -41 36 -27 4z"/>
<path d="M6020 3110 c-8 -5 -11 -10 -6 -10 5 0 3 -6 -3 -14 -8 -9 -8 -16 -2
-20 6 -4 15 3 21 14 15 27 9 42 -10 30z"/>
<path d="M292 3081 c-11 -7 -11 -9 2 -14 10 -4 16 -1 16 8 0 17 -1 17 -18 6z"/>
<path d="M5933 3083 c-20 -7 -15 -23 7 -23 11 0 20 4 20 9 0 13 -12 19 -27 14z"/>
<path d="M330 3040 c0 -5 5 -10 10 -10 6 0 10 5 10 10 0 6 -4 10 -10 10 -5 0
-10 -4 -10 -10z"/>
<path d="M5968 3003 c6 -2 18 -2 25 0 6 3 1 5 -13 5 -14 0 -19 -2 -12 -5z"/>
<path d="M474 2991 c10 -16 46 -20 46 -5 0 8 -10 14 -26 14 -14 0 -23 -4 -20
-9z"/>
<path d="M406 2944 c-8 -22 -1 -28 19 -17 14 8 14 11 2 22 -12 9 -16 8 -21 -5z"/>
<path d="M300 2940 c0 -5 9 -10 20 -10 11 0 20 5 20 10 0 6 -9 10 -20 10 -11
0 -20 -4 -20 -10z"/>
<path d="M5897 2933 c-13 -13 -7 -33 11 -33 11 0 18 8 19 20 2 19 -16 27 -30
13z"/>
<path d="M6008 2923 c-22 -24 -23 -43 -3 -43 18 0 28 21 23 46 -3 14 -5 14
-20 -3z"/>
<path d="M5900 2875 c0 -8 7 -15 15 -15 8 0 15 4 15 9 0 5 -7 11 -15 15 -9 3
-15 0 -15 -9z"/>
<path d="M6120 2861 c0 -6 5 -13 10 -16 6 -3 10 1 10 9 0 9 -4 16 -10 16 -5 0
-10 -4 -10 -9z"/>
<path d="M6001 2850 c-7 -4 -12 -13 -10 -19 3 -8 10 -8 23 2 21 15 9 31 -13
17z"/>
<path d="M380 2835 c0 -8 5 -15 10 -15 6 0 10 7 10 15 0 8 -4 15 -10 15 -5 0
-10 -7 -10 -15z"/>
<path d="M6095 2820 c-3 -5 3 -10 15 -10 12 0 18 5 15 10 -3 6 -10 10 -15 10
-5 0 -12 -4 -15 -10z"/>
<path d="M575 2781 c-3 -5 -1 -12 5 -16 12 -7 30 2 30 16 0 12 -27 12 -35 0z"/>
<path d="M5890 2780 c-13 -8 -12 -10 3 -10 9 0 17 5 17 10 0 12 -1 12 -20 0z"/>
<path d="M6060 2779 c0 -5 7 -12 15 -15 8 -4 12 -10 9 -15 -8 -14 22 -10 35 4
8 11 3 16 -24 24 -21 7 -35 7 -35 2z"/>
<path d="M375 2761 c-3 -5 -1 -12 5 -16 6 -4 7 -11 4 -17 -4 -6 -2 -8 4 -4 5
3 12 1 14 -6 8 -22 25 1 20 27 -4 25 -35 35 -47 16z"/>
<path d="M5916 2762 c-3 -6 1 -13 10 -16 23 -9 28 -2 10 13 -8 7 -17 8 -20 3z"/>
<path d="M6040 2700 c0 -5 5 -10 10 -10 6 0 10 5 10 10 0 6 -4 10 -10 10 -5 0
-10 -4 -10 -10z"/>
<path d="M226 2684 c-4 -9 -4 -19 -1 -22 2 -3 7 3 11 12 4 9 4 19 1 22 -2 3
-7 -3 -11 -12z"/>
<path d="M5906 2685 c-10 -7 -15 -18 -11 -24 10 -17 28 -13 21 5 -5 12 -1 14
16 8 20 -6 21 -5 9 10 -7 9 -14 16 -15 16 0 0 -9 -7 -20 -15z"/>
<path d="M5830 2626 c0 -23 26 -77 33 -70 4 4 1 14 -6 22 -6 8 -11 17 -9 19 6
9 1 43 -8 43 -5 0 -10 -6 -10 -14z"/>
<path d="M610 2480 c0 -5 5 -10 11 -10 5 0 7 5 4 10 -3 6 -8 10 -11 10 -2 0
-4 -4 -4 -10z"/>
<path d="M615 2430 c3 -5 8 -10 11 -10 2 0 4 5 4 10 0 6 -5 10 -11 10 -5 0 -7
-4 -4 -10z"/>
<path d="M3481 2371 c-10 -6 -10 -10 -1 -16 13 -8 24 -1 19 14 -3 6 -10 7 -18
2z"/>
<path d="M5110 2351 c0 -23 4 -29 15 -25 8 4 15 1 15 -5 0 -6 5 -11 10 -11 19
0 9 35 -15 53 l-25 18 0 -30z"/>
<path d="M3638 2363 c10 -4 8 -9 -7 -20 -17 -11 -18 -17 -8 -28 10 -11 15 -10
30 6 10 10 28 19 39 19 34 0 7 20 -33 25 -19 2 -28 1 -21 -2z"/>
<path d="M5465 2360 c3 -5 8 -10 11 -10 2 0 4 5 4 10 0 6 -5 10 -11 10 -5 0
-7 -4 -4 -10z"/>
<path d="M620 2351 c0 -5 5 -13 10 -16 6 -3 10 -2 10 4 0 5 -4 13 -10 16 -5 3
-10 2 -10 -4z"/>
<path d="M4445 2348 c-10 -25 -2 -49 13 -39 9 5 10 14 3 32 -8 20 -10 21 -16
7z"/>
<path d="M4860 2353 c0 -5 5 -15 10 -23 8 -12 10 -11 10 8 0 12 -4 22 -10 22
-5 0 -10 -3 -10 -7z"/>
<path d="M1065 2340 c3 -5 8 -10 11 -10 2 0 4 5 4 10 0 6 -5 10 -11 10 -5 0
-7 -4 -4 -10z"/>
<path d="M3025 2340 c3 -5 8 -10 11 -10 2 0 4 5 4 10 0 6 -5 10 -11 10 -5 0
-7 -4 -4 -10z"/>
<path d="M5385 2342 c-10 -7 -18 -32 -10 -32 2 0 9 9 15 20 12 22 11 24 -5 12z"/>
<path d="M4792 2328 c2 -6 10 -14 16 -16 7 -2 10 2 6 12 -7 18 -28 22 -22 4z"/>
<path d="M3220 2320 c0 -5 5 -10 11 -10 5 0 7 5 4 10 -3 6 -8 10 -11 10 -2 0
-4 -4 -4 -10z"/>
<path d="M4105 2291 c-6 -11 29 -34 38 -24 6 5 -16 33 -27 33 -3 0 -7 -4 -11
-9z"/>
<path d="M3390 2280 c0 -5 5 -10 10 -10 6 0 10 5 10 10 0 6 -4 10 -10 10 -5 0
-10 -4 -10 -10z"/>
<path d="M3790 2271 c0 -6 5 -13 10 -16 6 -3 10 1 10 9 0 9 -4 16 -10 16 -5 0
-10 -4 -10 -9z"/>
<path d="M4214 2259 c-3 -6 -1 -16 5 -22 8 -8 11 -5 11 11 0 24 -5 28 -16 11z"/>
<path d="M5036 2251 c-4 -5 -2 -12 3 -15 5 -4 12 -2 15 3 4 5 2 12 -3 15 -5 4
-12 2 -15 -3z"/>
<path d="M5096 2243 c-6 -14 -5 -15 5 -6 7 7 10 15 7 18 -3 3 -9 -2 -12 -12z"/>
<path d="M3390 2235 c7 -9 15 -13 17 -11 7 7 -7 26 -19 26 -6 0 -6 -6 2 -15z"/>
<path d="M3760 2240 c0 -6 4 -9 9 -6 5 4 12 1 14 -4 3 -6 4 -5 3 2 -3 15 -26
23 -26 8z"/>
<path d="M3830 2240 c0 -5 5 -10 11 -10 5 0 7 5 4 10 -3 6 -8 10 -11 10 -2 0
-4 -4 -4 -10z"/>
<path d="M4040 2239 c0 -4 6 -9 13 -12 8 -3 14 0 14 7 0 7 -6 13 -14 13 -7 0
-13 -4 -13 -8z"/>
<path d="M4106 2241 c-4 -5 -2 -12 3 -15 5 -4 12 -2 15 3 4 5 2 12 -3 15 -5 4
-12 2 -15 -3z"/>
</g>
</svg>
